<svg xmlns="http://www.w3.org/2000/svg" xmlns:xlink="http://www.w3.org/1999/xlink" viewBox="0 0 164.15 214.85"><defs><style>.cls-1,.cls-100,.cls-102,.cls-104,.cls-105,.cls-108,.cls-111,.cls-113,.cls-115,.cls-20,.cls-33,.cls-35,.cls-37,.cls-42,.cls-44,.cls-48,.cls-54,.cls-59,.cls-67,.cls-69,.cls-72,.cls-75,.cls-77,.cls-80,.cls-85,.cls-86,.cls-88,.cls-89,.cls-96,.cls-98{mix-blend-mode:screen;}.cls-1{fill:url(#radial-gradient);}.cls-10,.cls-19,.cls-2,.cls-21,.cls-28,.cls-29,.cls-3,.cls-30,.cls-36,.cls-38,.cls-39,.cls-4,.cls-46,.cls-5,.cls-61,.cls-63,.cls-64,.cls-73,.cls-8,.cls-84,.cls-9{mix-blend-mode:multiply;}.cls-2{fill:url(#radial-gradient-2);}.cls-3{fill:url(#radial-gradient-3);}.cls-4{fill:url(#radial-gradient-4);}.cls-5{fill:url(#radial-gradient-5);}.cls-6{fill:url(#radial-gradient-6);}.cls-7{fill:url(#radial-gradient-7);}.cls-8{fill:url(#radial-gradient-8);}.cls-9{fill:url(#radial-gradient-9);}.cls-10{fill:url(#radial-gradient-10);}.cls-11{fill:none;}.cls-12{isolation:isolate;}.cls-13{clip-path:url(#clip-path);}.cls-14{fill:url(#radial-gradient-11);}.cls-15{fill:url(#radial-gradient-12);}.cls-16{fill:url(#linear-gradient);}.cls-116,.cls-17,.cls-22,.cls-23,.cls-26,.cls-50,.cls-51,.cls-94{mix-blend-mode:overlay;}.cls-18{fill:url(#radial-gradient-13);}.cls-19{fill:url(#radial-gradient-14);}.cls-21{fill:url(#radial-gradient-15);}.cls-105,.cls-22,.cls-23,.cls-36,.cls-38,.cls-39,.cls-50,.cls-84,.cls-94{opacity:0.75;}.cls-22{fill:url(#radial-gradient-16);}.cls-23{fill:url(#radial-gradient-17);}.cls-24{fill:url(#radial-gradient-18);}.cls-25,.cls-26{fill:url(#linear-gradient-3);}.cls-27{fill:url(#radial-gradient-19);}.cls-28{fill:url(#radial-gradient-20);}.cls-29{fill:url(#radial-gradient-21);}.cls-30{fill:url(#radial-gradient-22);}.cls-31{fill:url(#radial-gradient-23);}.cls-32{fill:url(#linear-gradient-5);}.cls-33{fill:url(#radial-gradient-24);}.cls-34{fill:url(#radial-gradient-25);}.cls-35{fill:url(#radial-gradient-26);}.cls-36{fill:url(#radial-gradient-27);}.cls-37{fill:url(#radial-gradient-28);}.cls-38{fill:url(#radial-gradient-29);}.cls-39{fill:#c89472;}.cls-40{fill:url(#linear-gradient-6);}.cls-41{fill:url(#linear-gradient-7);}.cls-42{fill:url(#radial-gradient-30);}.cls-43{fill:url(#radial-gradient-31);}.cls-44{fill:url(#radial-gradient-32);}.cls-45{fill:url(#linear-gradient-8);}.cls-46{fill:url(#radial-gradient-33);}.cls-47{mask:url(#mask);}.cls-48{fill:#fff;}.cls-49{fill:url(#linear-gradient-9);}.cls-50{fill:url(#linear-gradient-10);}.cls-51{fill:url(#linear-gradient-11);}.cls-52{fill:url(#linear-gradient-12);}.cls-53{fill:url(#linear-gradient-13);}.cls-54{fill:url(#radial-gradient-34);}.cls-55{fill:url(#linear-gradient-14);}.cls-56{fill:url(#linear-gradient-15);}.cls-57{fill:url(#linear-gradient-16);}.cls-58{fill:url(#linear-gradient-17);}.cls-59{fill:url(#radial-gradient-35);}.cls-60{fill:url(#linear-gradient-18);}.cls-61{fill:url(#linear-gradient-19);}.cls-62{fill:#fdf5db;}.cls-63{fill:url(#radial-gradient-36);}.cls-64{fill:url(#radial-gradient-37);}.cls-65,.cls-85{fill:#422436;}.cls-66{fill:url(#radial-gradient-38);}.cls-67{fill:url(#radial-gradient-39);}.cls-68{fill:#f4be52;}.cls-69{fill:url(#radial-gradient-40);}.cls-70{fill:url(#linear-gradient-20);}.cls-71{fill:url(#linear-gradient-21);}.cls-72{fill:url(#radial-gradient-41);}.cls-73,.cls-84{fill:#d39f10;}.cls-74{fill:#f4c229;}.cls-75{fill:url(#radial-gradient-42);}.cls-76{fill:url(#radial-gradient-43);}.cls-77{fill:url(#radial-gradient-44);}.cls-78{fill:url(#linear-gradient-22);}.cls-79{fill:url(#radial-gradient-45);}.cls-80{fill:url(#radial-gradient-46);}.cls-81{fill:url(#radial-gradient-47);}.cls-82{fill:url(#linear-gradient-23);}.cls-83{fill:url(#radial-gradient-48);}.cls-86{fill:url(#radial-gradient-49);}.cls-87{fill:url(#linear-gradient-24);}.cls-116,.cls-88,.cls-89{opacity:0.55;}.cls-88{fill:url(#linear-gradient-25);}.cls-89{fill:url(#linear-gradient-26);}.cls-90{fill:url(#linear-gradient-27);}.cls-91{fill:url(#linear-gradient-28);}.cls-92{fill:url(#linear-gradient-29);}.cls-93{fill:url(#linear-gradient-30);}.cls-94{fill:url(#radial-gradient-50);}.cls-95{mask:url(#mask-2);}.cls-96{fill:url(#radial-gradient-51);}.cls-97{mask:url(#mask-3);}.cls-98{fill:url(#radial-gradient-52);}.cls-99{mask:url(#mask-4);}.cls-100{fill:url(#radial-gradient-53);}.cls-101{mask:url(#mask-5);}.cls-102{fill:url(#radial-gradient-54);}.cls-103{mask:url(#mask-6);}.cls-104{fill:url(#radial-gradient-55);}.cls-106,.cls-109{mix-blend-mode:color-dodge;}.cls-106{fill:url(#radial-gradient-56);}.cls-107{mask:url(#mask-7);}.cls-108{fill:url(#radial-gradient-57);}.cls-109{fill:url(#radial-gradient-58);}.cls-110{mask:url(#mask-8);}.cls-111{fill:url(#radial-gradient-59);}.cls-112{mask:url(#mask-9);}.cls-113{fill:url(#radial-gradient-60);}.cls-114{mask:url(#mask-10);}.cls-115{fill:url(#radial-gradient-61);}.cls-116{fill:url(#radial-gradient-62);}</style><radialGradient id="radial-gradient" cx="118.38" cy="-144.53" r="34.18" gradientTransform="translate(40.79 99.41) scale(0.5)" gradientUnits="userSpaceOnUse"><stop offset="0.01" stop-color="#fff"/><stop offset="1"/></radialGradient><radialGradient id="radial-gradient-2" cx="453.52" cy="-101.93" r="10.24" gradientTransform="matrix(0.32, 0, 0, 0.69, -61.96, 186.32)" gradientUnits="userSpaceOnUse"><stop offset="0" stop-color="#fff"/><stop offset="0.14" stop-color="#e2e2e2"/><stop offset="0.43" stop-color="#999"/><stop offset="0.87" stop-color="#262626"/><stop offset="1"/></radialGradient><radialGradient id="radial-gradient-3" cx="799.76" cy="-167.48" r="24.48" gradientTransform="matrix(0.32, 0, 0, 0.69, -100.79, 136.2)" xlink:href="#radial-gradient-2"/><radialGradient id="radial-gradient-4" cx="405.63" cy="-266.19" r="24.53" gradientTransform="matrix(0.32, 0, 0, 0.69, -117.88, 210.22)" xlink:href="#radial-gradient-2"/><radialGradient id="radial-gradient-5" cx="1235.31" cy="26.38" r="42.65" gradientTransform="matrix(0.32, 0, 0, 0.69, -283.02, -4.58)" xlink:href="#radial-gradient-2"/><radialGradient id="radial-gradient-6" cx="137.05" cy="-130.25" r="19.36" gradientTransform="translate(40.79 86.1) scale(0.5 0.56)" gradientUnits="userSpaceOnUse"><stop offset="0" stop-color="#fff"/><stop offset="0.21" stop-color="#c4c4c4"/><stop offset="0.6" stop-color="#5c5c5c"/><stop offset="0.87" stop-color="#1a1a1a"/><stop offset="1"/></radialGradient><radialGradient id="radial-gradient-7" cx="95.54" cy="143.99" r="19.36" xlink:href="#radial-gradient-6"/><radialGradient id="radial-gradient-8" cx="1128.06" cy="-140.58" r="50.04" gradientTransform="matrix(0.32, 0, 0, 0.59, -263.29, 115.91)" xlink:href="#radial-gradient-2"/><radialGradient id="radial-gradient-9" cx="589.39" cy="-74.3" r="23.63" gradientTransform="matrix(0.32, 0, 0, 0.59, -124.04, 249.35)" xlink:href="#radial-gradient-2"/><radialGradient id="radial-gradient-10" cx="381.14" cy="-36.16" r="14" gradientTransform="matrix(0.43, 0, 0, 0.69, -74.19, 189.77)" xlink:href="#radial-gradient-2"/><clipPath id="clip-path"><path class="cls-11" d="M149,12.23a14.54,14.54,0,0,0-5-1.83,18.74,18.74,0,0,0-3.57-.2c-.58,0-1.15.07-1.71.14A27.21,27.21,0,0,0,126,15.75a33.68,33.68,0,0,0-3.73,4c0-.23,0-.48,0-.7-.08-1.28-.16-2.29-.24-3.07v-.14h.08a1.51,1.51,0,0,0,1.4-.88l0-.06a3.5,3.5,0,0,0-3.32-4.71H42.28A3.5,3.5,0,0,0,39,14.9L39,15a1.51,1.51,0,0,0,1.4.88h.83V16c-.09.91-.19,2.18-.27,3.76a33.68,33.68,0,0,0-3.73-4,27.79,27.79,0,0,0-8-4.32,22.38,22.38,0,0,0-6.4-1.23,18.74,18.74,0,0,0-3.57.2,12.9,12.9,0,0,0-1.65.37l-.84.28a15.62,15.62,0,0,0-2.52,1.18q-.42.24-.83.51A16.79,16.79,0,0,0,11,14.64q-.37.36-.73.75a18.17,18.17,0,0,0-4.56,13.5,33.42,33.42,0,0,0,4,13.61q.5,1,1.06,2,1.15,2,2.48,3.93a55,55,0,0,0,4.33,5.45,58.86,58.86,0,0,0,5,4.89A126.25,126.25,0,0,0,53.23,78.25a84,84,0,0,0,18.7,23.4h-.1l-.64,1.24h0l-1.54,3,.25.14.34.19,0,0,.46.27h0l.49.29.12.07.54.34.13.09.59.39,0,0,.57.41.12.09.55.43.1.09c.18.15.35.3.51.46a2.66,2.66,0,0,1,.42.57l.08.14a7.42,7.42,0,0,1,.33.71l.12.3.18.46.25.68h-.16a5.86,5.86,0,0,0-2.16,3.78,5.41,5.41,0,0,0,0,.63h0s0,0,0,0a5.26,5.26,0,0,0,0,.75,6.3,6.3,0,0,0,4.28,4.94c-.11.86-.24,1.78-.38,2.77h0c-1.44,9.8-4.67,25.61-11.34,35.35H64a8.72,8.72,0,0,0-7.83,9.21H56c-5.22,0-9.45,4.91-9.45,11v21.63H45.41a2.85,2.85,0,0,0-2.64,1.78L41,208.14H39.29A2.4,2.4,0,0,0,37.05,210l-1,4.84h90.49l-1-4.84a2.4,2.4,0,0,0-2.23-1.87h-1.16l-1.74-4.29a2.85,2.85,0,0,0-2.64-1.78h-1.19V180.45c0-6.05-4.23-11-9.45-11h-.07a8.72,8.72,0,0,0-7.83-9.21H97c-6.61-9.65-9.84-25.23-11.3-35h0c-.15-1-.28-2-.4-2.85a1.57,1.57,0,0,0,.38-.13,1.68,1.68,0,0,0,.58-.65l.41-.26h0q.28-.19.54-.39l.06,0q.24-.19.45-.4l.09-.09c.13-.13.25-.26.37-.39l.11-.13c.1-.12.2-.25.29-.38l.12-.19c.08-.12.15-.24.22-.36l.12-.24c.06-.11.11-.23.16-.34s.07-.19.1-.29.08-.21.11-.32.05-.23.07-.34,0-.19.06-.29,0-.28,0-.41,0-.16,0-.24a5.15,5.15,0,0,0,0-.67h0A5.86,5.86,0,0,0,87.43,112h-.11a8.42,8.42,0,0,1,1.38-2.87c.16-.15.33-.31.51-.46l.1-.08.55-.43.12-.09.58-.41h0l.6-.4.13-.09.54-.34.12-.07.49-.3h0l.46-.27,0,0,.34-.19.26-.14-.07-.14h0l-2.1-4.05h-.15a84,84,0,0,0,18.7-23.4,126.26,126.26,0,0,0,30.62-19.52q1.76-1.53,3.38-3.2a56.36,56.36,0,0,0,4.56-5.27q.7-.92,1.37-1.88,1.33-1.91,2.48-3.93.56-1,1.06-2a36.43,36.43,0,0,0,3.73-10.72C158.78,21.85,154.22,15.28,149,12.23ZM48,68.86c-.81-.41-1.7-.87-2.65-1.4l-.08,0c-1-.53-2-1.11-3-1.76l-.08-.05c-1-.65-2.13-1.35-3.23-2.11l-.12-.08c-1.09-.76-2.2-1.58-3.32-2.45l-.16-.13q-.82-.65-1.64-1.34h0A50.89,50.89,0,0,1,25,50.06c-5-7.14-7.89-14.24-8.49-19.86A13.89,13.89,0,0,1,17.31,23a7.7,7.7,0,0,1,.76-1.32,6.7,6.7,0,0,1,3.61-2.54c7.06-2.12,14.15,9,19.14,10.53A114.83,114.83,0,0,0,49,69.35l-.94-.46ZM40.45,27.38l.31,0c0,.05,0,.1,0,.15Zm82,0,.33,0-.33.13C122.41,27.46,122.41,27.4,122.41,27.35Zm-4.22,30.32c.65-2.35,1.21-4.67,1.68-6.94s.87-4.49,1.19-6.64.57-4.24.77-6.24c.28-2.91.44-5.64.52-8.13,4.91-1.45,11.86-12.28,18.82-10.61l.32.08c8.23,2.47,6.72,16.6-3.29,30.88-7.13,10.16-18.23,16.49-24,19.3A102.16,102.16,0,0,0,118.19,57.67Z"/></clipPath><radialGradient id="radial-gradient-11" cx="84.78" cy="-107.92" r="126.71" gradientTransform="translate(40.79 99.41) scale(0.5)" gradientUnits="userSpaceOnUse"><stop offset="0.01" stop-color="#ffd44a"/><stop offset="0.54" stop-color="#ffea72"/><stop offset="0.57" stop-color="#fee471"/><stop offset="0.61" stop-color="#fbd46e"/><stop offset="0.65" stop-color="#f6ba68"/><stop offset="0.7" stop-color="#ef9561"/><stop offset="0.71" stop-color="#ee9060"/><stop offset="0.96" stop-color="#ffd44a"/></radialGradient><radialGradient id="radial-gradient-12" cx="-300" cy="-107.74" r="98.39" gradientTransform="matrix(-0.5, 0, 0, 0.5, -60.83, 99.41)" gradientUnits="userSpaceOnUse"><stop offset="0.02" stop-color="#bd4a00"/><stop offset="1" stop-color="#864a00"/></radialGradient><linearGradient id="linear-gradient" x1="157.04" y1="36.95" x2="114.46" y2="46.74" gradientUnits="userSpaceOnUse"><stop offset="0" stop-color="#efc16b"/><stop offset="0.08" stop-color="#c38f4b"/><stop offset="0.12" stop-color="#aa7238"/><stop offset="0.25" stop-color="#c08443"/><stop offset="0.35" stop-color="#c28543"/><stop offset="0.39" stop-color="#c98943"/><stop offset="0.41" stop-color="#d48f42"/><stop offset="0.42" stop-color="#db9342"/><stop offset="0.66" stop-color="#ac6838"/><stop offset="0.89" stop-color="#f0c46c"/><stop offset="0.93" stop-color="#efc26b"/><stop offset="0.96" stop-color="#ecb967"/><stop offset="0.98" stop-color="#e7ab60"/><stop offset="0.99" stop-color="#df9856"/><stop offset="1" stop-color="#dc8f52"/></linearGradient><radialGradient id="radial-gradient-13" cx="84.78" cy="-107.92" r="126.71" xlink:href="#radial-gradient-11"/><radialGradient id="radial-gradient-14" cx="84.78" cy="-107.92" r="126.71" gradientTransform="translate(40.79 99.41) scale(0.5)" gradientUnits="userSpaceOnUse"><stop offset="0" stop-color="#bd4a00"/><stop offset="0.62" stop-color="#ffea72"/></radialGradient><radialGradient id="radial-gradient-15" cx="45.22" cy="-67.25" r="34.75" gradientTransform="translate(40.79 99.41) scale(0.5)" gradientUnits="userSpaceOnUse"><stop offset="0" stop-color="#ffffc3"/><stop offset="0.95" stop-color="#ffea72"/></radialGradient><radialGradient id="radial-gradient-16" cx="-60.5" cy="-123.2" r="77.68" xlink:href="#radial-gradient-15"/><radialGradient id="radial-gradient-17" cx="-155.82" cy="-123.2" r="77.68" gradientTransform="matrix(-0.5, 0, 0, 0.5, 74.73, 99.41)" xlink:href="#radial-gradient-15"/><radialGradient id="radial-gradient-18" cx="66.46" cy="-107.74" r="98.39" gradientTransform="translate(40.79 99.41) scale(0.5)" xlink:href="#radial-gradient-12"/><linearGradient id="linear-gradient-3" x1="171.53" y1="36.95" x2="128.95" y2="46.74" gradientTransform="matrix(-1, 0, 0, 1, 177.66, 0)" xlink:href="#linear-gradient"/><radialGradient id="radial-gradient-19" cx="82.71" cy="-177.98" r="177.23" gradientTransform="translate(40.79 99.41) scale(0.5)" gradientUnits="userSpaceOnUse"><stop offset="0" stop-color="#f4be52"/><stop offset="0.62" stop-color="#ffea72"/></radialGradient><radialGradient id="radial-gradient-20" cx="82.71" cy="-177.98" r="177.23" xlink:href="#radial-gradient-14"/><radialGradient id="radial-gradient-21" cx="85.12" cy="-175.06" r="188.85" xlink:href="#radial-gradient-14"/><radialGradient id="radial-gradient-22" cx="85.12" cy="-175.06" r="188.85" xlink:href="#radial-gradient-15"/><radialGradient id="radial-gradient-23" cx="118.66" cy="-177.98" r="177.23" gradientTransform="translate(39.85 99.41) scale(0.36 0.5)" xlink:href="#radial-gradient-19"/><linearGradient id="linear-gradient-5" x1="81.59" y1="101.07" x2="81.59" y2="14.54" gradientUnits="userSpaceOnUse"><stop offset="0" stop-color="#aa7238"/><stop offset="0.25" stop-color="#c08443"/><stop offset="0.35" stop-color="#be8242"/><stop offset="0.39" stop-color="#b87b3d"/><stop offset="0.42" stop-color="#ad7036"/><stop offset="0.44" stop-color="#9d5f2b"/><stop offset="0.46" stop-color="#88491d"/><stop offset="0.47" stop-color="#7a3a14"/><stop offset="0.64" stop-color="#7c3c15"/><stop offset="0.72" stop-color="#83441a"/><stop offset="0.79" stop-color="#8e5123"/><stop offset="0.85" stop-color="#9e642f"/><stop offset="0.9" stop-color="#b37c3e"/><stop offset="0.95" stop-color="#cd9b52"/><stop offset="0.99" stop-color="#ebbe68"/><stop offset="1" stop-color="#f0c46c"/></linearGradient><radialGradient id="radial-gradient-24" cx="85.81" cy="-169.22" r="152.59" gradientTransform="translate(40.79 99.41) scale(0.5)" gradientUnits="userSpaceOnUse"><stop offset="0.01" stop-color="#f6c054"/><stop offset="0.54" stop-color="#ffea72"/><stop offset="0.58" stop-color="#fff071"/><stop offset="0.59" stop-color="#fff171"/><stop offset="0.82" stop-color="#ffe05a"/><stop offset="0.96" stop-color="#ffd44a"/></radialGradient><radialGradient id="radial-gradient-25" cx="86.53" cy="-169.22" r="152.59" gradientTransform="translate(49.54 99.41) scale(0.39 0.5)" xlink:href="#radial-gradient-24"/><radialGradient id="radial-gradient-26" cx="85.19" cy="-156.79" r="124.56" xlink:href="#radial-gradient-24"/><radialGradient id="radial-gradient-27" cx="30.75" cy="-151.86" r="83.4" xlink:href="#radial-gradient-24"/><radialGradient id="radial-gradient-28" cx="231.53" cy="-169.22" r="152.59" gradientTransform="translate(39.03 99.41) scale(0.19 0.5)" xlink:href="#radial-gradient-24"/><radialGradient id="radial-gradient-29" cx="68.95" cy="-98.06" r="79.32" xlink:href="#radial-gradient-24"/><linearGradient id="linear-gradient-6" x1="38.92" y1="13.01" x2="123.94" y2="13.01" gradientUnits="userSpaceOnUse"><stop offset="0.01" stop-color="#ffd44a"/><stop offset="0.11" stop-color="#f5f09f"/><stop offset="0.19" stop-color="#f5ee9d"/><stop offset="0.21" stop-color="#f4e996"/><stop offset="0.24" stop-color="#f3de8b"/><stop offset="0.25" stop-color="#f1d07a"/><stop offset="0.26" stop-color="#f0c46c"/><stop offset="0.31" stop-color="#efc26a"/><stop offset="0.34" stop-color="#edbb61"/><stop offset="0.36" stop-color="#eaaf53"/><stop offset="0.37" stop-color="#e8aa4d"/><stop offset="0.51" stop-color="#fce16d"/><stop offset="0.54" stop-color="#ffea72"/><stop offset="0.58" stop-color="#fde473"/><stop offset="0.64" stop-color="#f9d476"/><stop offset="0.7" stop-color="#f2ba7c"/><stop offset="0.71" stop-color="#f1b87c"/><stop offset="0.96" stop-color="#ffd44a"/></linearGradient><linearGradient id="linear-gradient-7" x1="96.76" y1="13.01" x2="113.66" y2="13.01" gradientUnits="userSpaceOnUse"><stop offset="0.54" stop-color="#ffea72"/><stop offset="0.66" stop-color="#ffe76c"/><stop offset="0.83" stop-color="#ffde5c"/><stop offset="0.96" stop-color="#ffd44a"/></linearGradient><radialGradient id="radial-gradient-30" cx="126.94" cy="-172.81" r="12.51" xlink:href="#radial-gradient-24"/><radialGradient id="radial-gradient-31" cx="80.85" cy="-172.81" r="60.25" gradientTransform="translate(40.79 99.41) scale(0.5)" gradientUnits="userSpaceOnUse"><stop offset="0.01" stop-color="#f6c054"/><stop offset="0.54" stop-color="#ffea72"/><stop offset="0.66" stop-color="#ffe76c"/><stop offset="0.83" stop-color="#ffde5c"/><stop offset="0.96" stop-color="#ffd44a"/></radialGradient><radialGradient id="radial-gradient-32" cx="80.85" cy="-196.03" r="60.24" gradientTransform="translate(40.79 92.75) scale(0.5 0.4)" xlink:href="#radial-gradient-24"/><linearGradient id="linear-gradient-8" x1="50.57" y1="13.55" x2="72.77" y2="13.55" gradientUnits="userSpaceOnUse"><stop offset="0" stop-color="#aa7238"/><stop offset="0.25" stop-color="#c08443"/><stop offset="0.35" stop-color="#be8242"/><stop offset="0.39" stop-color="#b87b3d"/><stop offset="0.42" stop-color="#ad7036"/><stop offset="0.44" stop-color="#9d5f2b"/><stop offset="0.46" stop-color="#88491d"/><stop offset="0.47" stop-color="#7a3a14"/><stop offset="0.5" stop-color="#7f4018"/><stop offset="0.56" stop-color="#8e5223"/><stop offset="0.62" stop-color="#a76f36"/><stop offset="0.69" stop-color="#ca974f"/><stop offset="0.76" stop-color="#f0c46c"/></linearGradient><radialGradient id="radial-gradient-33" cx="83.33" cy="-146" r="155.42" gradientTransform="translate(40.79 99.41) scale(0.5)" gradientUnits="userSpaceOnUse"><stop offset="0.38" stop-color="#ffea72"/><stop offset="0.45" stop-color="#fade69"/><stop offset="0.59" stop-color="#ecbd52"/><stop offset="0.74" stop-color="#da9032"/></radialGradient><mask id="mask" x="84.46" y="8.63" width="31.05" height="37.04" maskUnits="userSpaceOnUse"><polygon class="cls-1" points="100.55 27 108.5 20.47 102.27 28.66 115.51 29.47 102.31 31.04 115.51 45.66 100.65 32.76 99.65 43 98.27 32.8 91.17 38.81 96.55 31.15 84.46 30.14 96.51 28.76 87.57 18.41 98.16 27.04 99.17 8.63 100.55 27"/></mask><linearGradient id="linear-gradient-9" x1="88.45" y1="103.76" x2="75.47" y2="103.76" gradientUnits="userSpaceOnUse"><stop offset="0" stop-color="#ffea72"/><stop offset="0.75" stop-color="#f1aa00"/><stop offset="0.89" stop-color="#f4be52"/></linearGradient><linearGradient id="linear-gradient-10" x1="92.17" y1="99.8" x2="92.13" y2="118.03" gradientTransform="matrix(1, 0, 0, 1, 0, 0)" xlink:href="#radial-gradient-15"/><linearGradient id="linear-gradient-11" x1="71.06" y1="99.75" x2="71.02" y2="117.99" gradientTransform="matrix(1, 0, 0, 1, 0, 0)" xlink:href="#radial-gradient-15"/><linearGradient id="linear-gradient-12" x1="88.11" y1="103.76" x2="70.39" y2="103.76" xlink:href="#linear-gradient-5"/><linearGradient id="linear-gradient-13" x1="77.28" y1="103.67" x2="82.76" y2="104.04" gradientUnits="userSpaceOnUse"><stop offset="0" stop-color="#aa7238"/><stop offset="0.25" stop-color="#c08443"/><stop offset="0.35" stop-color="#be8242"/><stop offset="0.39" stop-color="#b87b3d"/><stop offset="0.42" stop-color="#ad7036"/><stop offset="0.44" stop-color="#9d5f2b"/><stop offset="0.46" stop-color="#88491d"/><stop offset="0.47" stop-color="#7a3a14"/><stop offset="0.57" stop-color="#7d3d16"/><stop offset="0.66" stop-color="#86481d"/><stop offset="0.74" stop-color="#955a28"/><stop offset="0.83" stop-color="#ab7338"/><stop offset="0.91" stop-color="#c6934d"/><stop offset="0.98" stop-color="#e8ba66"/><stop offset="1" stop-color="#f0c46c"/></linearGradient><radialGradient id="radial-gradient-34" cx="48.03" cy="8.69" r="7.8" gradientTransform="matrix(-0.5, 0, 0, 0.5, 105.23, 99.41)" xlink:href="#radial-gradient-24"/><linearGradient id="linear-gradient-14" x1="88.45" y1="103.76" x2="75.47" y2="103.76" gradientUnits="userSpaceOnUse"><stop offset="0" stop-color="#ffe791"/><stop offset="0.11" stop-color="#ffd951"/><stop offset="0.22" stop-color="#ffcc17"/><stop offset="0.27" stop-color="#ffc700"/><stop offset="0.48" stop-color="#ffd233"/><stop offset="0.72" stop-color="#fd6"/><stop offset="0.9" stop-color="#ffe485"/><stop offset="1" stop-color="#ffe791"/></linearGradient><linearGradient id="linear-gradient-15" x1="88.45" y1="111.41" x2="75.47" y2="111.41" xlink:href="#linear-gradient-9"/><linearGradient id="linear-gradient-16" x1="85.56" y1="111.7" x2="75.95" y2="111.7" xlink:href="#linear-gradient-14"/><linearGradient id="linear-gradient-17" x1="83.82" y1="111.17" x2="87.81" y2="111.6" xlink:href="#linear-gradient-5"/><radialGradient id="radial-gradient-35" cx="81.64" cy="23.99" r="14.77" xlink:href="#radial-gradient-24"/><linearGradient id="linear-gradient-18" x1="78.15" y1="110.36" x2="81.55" y2="109.88" xlink:href="#linear-gradient-13"/><linearGradient id="linear-gradient-19" x1="81.34" y1="114.13" x2="81.61" y2="106.15" gradientUnits="userSpaceOnUse"><stop offset="0" stop-color="#ffffc3"/><stop offset="0.42" stop-color="#ecc972"/></linearGradient><radialGradient id="radial-gradient-36" cx="86.27" cy="12.74" r="22.79" xlink:href="#radial-gradient-15"/><radialGradient id="radial-gradient-37" cx="86.05" cy="16.16" r="27.59" gradientTransform="translate(40.79 99.41) scale(0.5)" xlink:href="#linear-gradient-19"/><radialGradient id="radial-gradient-38" cx="81.59" cy="251.42" r="57.63" gradientTransform="translate(40.79 106.96) scale(0.5 0.39)" xlink:href="#radial-gradient-24"/><radialGradient id="radial-gradient-39" cx="81.59" cy="211.41" r="57.52" xlink:href="#radial-gradient-15"/><radialGradient id="radial-gradient-40" cx="82.3" cy="79.87" r="28.99" xlink:href="#radial-gradient-15"/><linearGradient id="linear-gradient-20" x1="81.59" y1="158.93" x2="81.59" y2="116.92" xlink:href="#linear-gradient-5"/><linearGradient id="linear-gradient-21" x1="76.11" y1="140" x2="93.2" y2="140" xlink:href="#linear-gradient-14"/><radialGradient id="radial-gradient-41" cx="84.91" cy="81.19" r="34.51" gradientTransform="translate(48.78 99.41) scale(0.4 0.5)" xlink:href="#radial-gradient-24"/><radialGradient id="radial-gradient-42" cx="81.59" cy="130.96" r="36.6" xlink:href="#radial-gradient-15"/><radialGradient id="radial-gradient-43" cx="81.57" cy="150.44" r="36.84" gradientTransform="translate(40.79 102.39) scale(0.5 0.42)" xlink:href="#radial-gradient-31"/><radialGradient id="radial-gradient-44" cx="81.57" cy="150.44" r="37.35" gradientTransform="translate(40.79 102.39) scale(0.5 0.42)" xlink:href="#radial-gradient-24"/><linearGradient id="linear-gradient-22" x1="66.34" y1="165.62" x2="83.58" y2="165.62" xlink:href="#linear-gradient-5"/><radialGradient id="radial-gradient-45" cx="82.1" cy="19.25" r="27.21" gradientTransform="translate(40.79 99.41) scale(0.5)" gradientUnits="userSpaceOnUse"><stop offset="0" stop-color="#ffea72"/><stop offset="0.75" stop-color="#f4be52"/><stop offset="0.89" stop-color="#f4be52"/></radialGradient><radialGradient id="radial-gradient-46" cx="82.83" cy="33.42" r="14.38" xlink:href="#radial-gradient-15"/><radialGradient id="radial-gradient-47" cx="80.99" cy="19.25" r="27.21" gradientTransform="translate(45.1 99.41) scale(0.45 0.5)" xlink:href="#linear-gradient-9"/><linearGradient id="linear-gradient-23" x1="122.75" y1="117.42" x2="138.83" y2="117.42" gradientTransform="translate(-3.6) scale(0.65 1)" xlink:href="#linear-gradient-5"/><radialGradient id="radial-gradient-48" cx="82.31" cy="25.67" r="16.25" xlink:href="#radial-gradient-31"/><radialGradient id="radial-gradient-49" cx="80.8" cy="173.48" r="41.25" gradientTransform="translate(40.79 99.41) scale(0.5)" gradientUnits="userSpaceOnUse"><stop offset="0" stop-color="#ffffc3"/><stop offset="1" stop-color="#fff18d"/></radialGradient><linearGradient id="linear-gradient-24" x1="58.76" y1="195.54" x2="108.01" y2="174.92" gradientUnits="userSpaceOnUse"><stop offset="0.01" stop-color="#f6c054"/><stop offset="0.28" stop-color="#cda85a"/><stop offset="0.54" stop-color="#ffea72"/><stop offset="0.58" stop-color="#fff071"/><stop offset="0.59" stop-color="#fff171"/><stop offset="0.82" stop-color="#ffe05a"/><stop offset="0.96" stop-color="#ffd44a"/></linearGradient><linearGradient id="linear-gradient-25" x1="60.29" y1="201.53" x2="111.37" y2="180.14" xlink:href="#linear-gradient-24"/><linearGradient id="linear-gradient-26" x1="55.46" y1="190.16" x2="113.2" y2="165.97" xlink:href="#linear-gradient-24"/><linearGradient id="linear-gradient-27" x1="61.58" y1="177.32" x2="62.37" y2="178.45" gradientUnits="userSpaceOnUse"><stop offset="0" stop-color="#b8b3a6"/><stop offset="1" stop-color="#61563a"/></linearGradient><linearGradient id="linear-gradient-28" x1="100.07" y1="177.32" x2="100.86" y2="178.45" xlink:href="#linear-gradient-27"/><linearGradient id="linear-gradient-29" x1="61.58" y1="193.87" x2="62.37" y2="195.01" xlink:href="#linear-gradient-27"/><linearGradient id="linear-gradient-30" x1="100.07" y1="193.87" x2="100.86" y2="195.01" xlink:href="#linear-gradient-27"/><radialGradient id="radial-gradient-50" cx="80.85" cy="-172.81" r="60.25" xlink:href="#radial-gradient-15"/><mask id="mask-2" x="77.51" y="109.95" width="9.14" height="12.54" maskUnits="userSpaceOnUse"><ellipse class="cls-2" cx="82.08" cy="116.22" rx="3.25" ry="7.04" transform="matrix(0.86, -0.51, 0.51, 0.86, -48.08, 58.74)"/></mask><radialGradient id="radial-gradient-51" cx="453.52" cy="-101.93" r="10.24" gradientTransform="matrix(0.32, 0, 0, 0.69, -61.96, 186.32)" gradientUnits="userSpaceOnUse"><stop offset="0" stop-color="#ececd1"/><stop offset="1"/></radialGradient><mask id="mask-3" x="142.29" y="6.03" width="21.86" height="29.97" maskUnits="userSpaceOnUse"><ellipse class="cls-3" cx="153.22" cy="21.01" rx="7.78" ry="16.84" transform="translate(11 81.77) rotate(-30.94)"/></mask><radialGradient id="radial-gradient-52" cx="799.76" cy="-167.48" r="24.48" gradientTransform="matrix(0.32, 0, 0, 0.69, -100.79, 136.2)" xlink:href="#radial-gradient-51"/><mask id="mask-4" x="0" y="12.13" width="21.9" height="30.04" maskUnits="userSpaceOnUse"><ellipse class="cls-4" cx="10.95" cy="27.15" rx="7.79" ry="16.87" transform="translate(-12.4 9.49) rotate(-30.94)"/></mask><radialGradient id="radial-gradient-53" cx="405.63" cy="-266.19" r="24.53" gradientTransform="matrix(0.32, 0, 0, 0.69, -117.88, 210.22)" xlink:href="#radial-gradient-51"/><mask id="mask-5" x="79.98" y="0" width="58.67" height="27.1" maskUnits="userSpaceOnUse"><ellipse class="cls-5" cx="109.32" cy="13.55" rx="13.55" ry="29.33" transform="translate(95.21 122.79) rotate(-89.71)"/></mask><radialGradient id="radial-gradient-54" cx="1235.31" cy="26.38" r="42.65" gradientTransform="matrix(0.32, 0, 0, 0.69, -283.02, -4.58)" xlink:href="#radial-gradient-51"/><mask id="mask-6" x="99.16" y="3.32" width="20.31" height="20.45" maskUnits="userSpaceOnUse"><ellipse class="cls-6" cx="109.32" cy="13.55" rx="10.16" ry="10.22"/></mask><radialGradient id="radial-gradient-55" cx="137.05" cy="-130.25" r="19.36" gradientTransform="translate(40.79 86.1) scale(0.5 0.56)" gradientUnits="userSpaceOnUse"><stop offset="0" stop-color="#ffefa1"/><stop offset="0.13" stop-color="#e5d791"/><stop offset="0.4" stop-color="#a39967"/><stop offset="0.79" stop-color="#3b3725"/><stop offset="1"/></radialGradient><radialGradient id="radial-gradient-56" cx="137.33" cy="-130.25" r="2.68" gradientTransform="translate(40.79 86.1) scale(0.5 0.56)" gradientUnits="userSpaceOnUse"><stop offset="0.51" stop-color="#fffccc"/><stop offset="0.56" stop-color="#faf7c8"/><stop offset="0.62" stop-color="#eae8bb"/><stop offset="0.69" stop-color="#d1cfa7"/><stop offset="0.76" stop-color="#aeac8b"/><stop offset="0.83" stop-color="#807f67"/><stop offset="0.91" stop-color="#49483a"/><stop offset="0.99" stop-color="#080807"/><stop offset="1"/></radialGradient><mask id="mask-7" x="78.41" y="156.07" width="20.31" height="20.45" maskUnits="userSpaceOnUse"><ellipse class="cls-7" cx="88.57" cy="166.3" rx="10.16" ry="10.22"/></mask><radialGradient id="radial-gradient-57" cx="95.54" cy="143.99" r="19.36" xlink:href="#radial-gradient-55"/><radialGradient id="radial-gradient-58" cx="95.83" cy="143.99" r="2.68" xlink:href="#radial-gradient-56"/><mask id="mask-8" x="67.09" y="14.19" width="55.73" height="37.42" maskUnits="userSpaceOnUse"><ellipse class="cls-8" cx="94.95" cy="32.9" rx="15.89" ry="29.55" transform="translate(27.14 107.06) rotate(-66.67)"/></mask><radialGradient id="radial-gradient-59" cx="1128.06" cy="-140.58" r="50.04" gradientTransform="matrix(0.32, 0, 0, 0.59, -263.29, 115.91)" xlink:href="#radial-gradient-51"/><mask id="mask-9" x="49.98" y="196.64" width="26.32" height="17.67" maskUnits="userSpaceOnUse"><ellipse class="cls-9" cx="63.14" cy="205.48" rx="7.51" ry="13.96" transform="translate(-150.54 182.08) rotate(-66.67)"/></mask><radialGradient id="radial-gradient-60" cx="589.39" cy="-74.3" r="23.63" gradientTransform="matrix(0.32, 0, 0, 0.59, -124.04, 249.35)" xlink:href="#radial-gradient-51"/><mask id="mask-10" x="81.07" y="156.07" width="14.24" height="17.62" maskUnits="userSpaceOnUse"><ellipse class="cls-10" cx="88.19" cy="164.89" rx="5.97" ry="9.63" transform="translate(-72.23 68.81) rotate(-30.94)"/></mask><radialGradient id="radial-gradient-61" cx="381.14" cy="-36.16" r="14" gradientTransform="matrix(0.43, 0, 0, 0.69, -74.19, 189.77)" xlink:href="#radial-gradient-51"/><radialGradient id="radial-gradient-62" cx="96.91" cy="-99.67" r="242.67" gradientTransform="translate(40.79 99.41) scale(0.5)" gradientUnits="userSpaceOnUse"><stop offset="0" stop-color="#ececbb"/><stop offset="1" stop-color="#784f58"/></radialGradient></defs><title>Asset 1@1</title><g class="cls-12"><g id="Layer_2" data-name="Layer 2"><g id="Layer_1-2" data-name="Layer 1"><g class="cls-13"><path class="cls-14" d="M144,10.4c-9.74-1.51-18,5.35-18,5.35s-9.61,8.51-4.67,11.25,11.94-10.29,20.17-7.82,6.72,16.6-3.29,30.88-27.86,21-27.86,21l-3.71,8.65a126.84,126.84,0,0,0,33.92-21,55.67,55.67,0,0,0,11.79-14.28C164.4,23.35,152.61,11.74,144,10.4Z"/><path class="cls-15" d="M138.22,50.06c10-14.27,11.53-28.41,3.29-30.87S125,32.3,120.06,29.56c-1.34-.74-.33-4.46,0-5.76.19.17-1.63,3.23-1.4,3.42,5.19,4.23,15-12.5,24.07-9,6.82,2.64,7.7,15.54-3.58,31.61-9.81,14-25.7,21-29.82,22.73l1-1.5S128.2,64.33,138.22,50.06Z"/><path class="cls-16" d="M142.54,13.55a19.93,19.93,0,0,0-13.13,2.88,91.14,91.14,0,0,0-9.81,7.88l.41,4.23S132.42,16.71,140.2,17c7.28.26,14.1,9.46,4.61,27.54a47,47,0,0,1-9.29,12.22A90.52,90.52,0,0,1,111.32,74c-.16.42-.31.85-.45,1.28,0,.12-.09.24-.13.35a105.68,105.68,0,0,0,27.72-18.13,50.6,50.6,0,0,0,10.72-13C160.12,25.32,150.4,14.77,142.54,13.55Z"/><g class="cls-17"><path class="cls-16" d="M142.54,13.55a19.93,19.93,0,0,0-13.13,2.88,91.14,91.14,0,0,0-9.81,7.88l.41,4.23S132.42,16.71,140.2,17c7.28.26,14.1,9.46,4.61,27.54a47,47,0,0,1-9.29,12.22A90.52,90.52,0,0,1,111.32,74c-.16.42-.31.85-.45,1.28,0,.12-.09.24-.13.35a105.68,105.68,0,0,0,27.72-18.13,50.6,50.6,0,0,0,10.72-13C160.12,25.32,150.4,14.77,142.54,13.55Z"/></g><path class="cls-18" d="M25,50.06C15,35.79,13.45,21.65,21.68,19.18S36.91,29.75,41.85,27s-4.67-11.25-4.67-11.25S29,8.89,19.21,10.4c-8.65,1.34-20.43,12.95-8.39,34.06A55.66,55.66,0,0,0,22.61,58.73a126.84,126.84,0,0,0,33.92,21l-3.71-8.65S35,64.33,25,50.06Z"/><path class="cls-19" d="M25,50.06C15,35.79,13.45,21.65,21.68,19.18S36.91,29.75,41.85,27s-4.67-11.25-4.67-11.25S29,8.89,19.21,10.4c-8.65,1.34-20.43,12.95-8.39,34.06A55.66,55.66,0,0,0,22.61,58.73a126.84,126.84,0,0,0,33.92,21l-3.71-8.65S35,64.33,25,50.06Z"/><g class="cls-20"><path class="cls-21" d="M53.19,71.9l-.36-.85A72.87,72.87,0,0,1,33.71,59.49,73.15,73.15,0,0,0,53.19,71.9Z"/><path class="cls-22" d="M12.3,45.76C.26,24.65,12,13,20.69,11.7c8.29-1.28,15.47,3.48,17.43,4.93-.56-.55-.93-.88-.93-.88S29,8.89,19.21,10.4c-8.65,1.34-20.43,12.95-8.39,34.06A55.66,55.66,0,0,0,22.61,58.73l.89.77A55.44,55.44,0,0,1,12.3,45.76Z"/><path class="cls-23" d="M150.87,45.76c12-21.11.26-32.72-8.39-34.06-8.29-1.28-15.47,3.48-17.43,4.93.56-.55.93-.88.93-.88s8.23-6.86,18-5.35c8.65,1.34,20.43,12.95,8.39,34.06a55.67,55.67,0,0,1-11.79,14.28l-.89.77A55.45,55.45,0,0,0,150.87,45.76Z"/></g><path class="cls-24" d="M25,50.06C15,35.79,13.45,21.65,21.68,19.18S38.19,32.3,43.13,29.56c1.34-.74.33-4.46,0-5.76-.19.17,1.63,3.23,1.4,3.42-5.19,4.23-15-12.5-24.07-9-6.82,2.64-7.7,15.54,3.58,31.61,9.81,14,25.69,21,29.82,22.73l-1-1.5S35,64.33,25,50.06Z"/><path class="cls-25" d="M20.64,13.55a19.93,19.93,0,0,1,13.13,2.88,91.14,91.14,0,0,1,9.81,7.88l-.41,4.23S30.75,16.71,23,17c-7.28.26-14.1,9.46-4.61,27.54a47,47,0,0,0,9.29,12.22A90.51,90.51,0,0,0,51.85,74c.16.42.31.85.45,1.28,0,.12.09.24.13.35A105.68,105.68,0,0,1,24.71,57.47,50.59,50.59,0,0,1,14,44.5C3.05,25.32,12.78,14.77,20.64,13.55Z"/><path class="cls-26" d="M20.64,13.55a19.93,19.93,0,0,1,13.13,2.88,91.14,91.14,0,0,1,9.81,7.88l-.41,4.23S30.75,16.71,23,17c-7.28.26-14.1,9.46-4.61,27.54a47,47,0,0,0,9.29,12.22A90.51,90.51,0,0,0,51.85,74c.16.42.31.85.45,1.28,0,.12.09.24.13.35A105.68,105.68,0,0,1,24.71,57.47,50.59,50.59,0,0,1,14,44.5C3.05,25.32,12.78,14.77,20.64,13.55Z"/><path class="cls-27" d="M41.31,14.8c-.66,5.57-5.9,59.94,35.6,90.91h9.35c41.5-31,36.26-85.34,35.6-90.91Z"/><path class="cls-28" d="M41.31,14.8c-.66,5.57-5.9,59.94,35.6,90.91h9.35c41.5-31,36.26-85.34,35.6-90.91Z"/><g class="cls-20"><path class="cls-29" d="M43.34,14.8h-2c-.66,5.57-5.9,59.94,35.6,90.91h.24C37.74,74.74,42.72,20.37,43.34,14.8Z"/><path class="cls-30" d="M121.87,14.8h-2c.63,5.57,5.6,59.94-33.8,90.91h.24C127.77,74.74,122.52,20.37,121.87,14.8Z"/></g><path class="cls-31" d="M53,14.8c-.47,5.57-4.19,59.94,25.28,90.91h6.64c29.47-31,25.75-85.34,25.28-90.91Z"/><path class="cls-32" d="M49.95,14.8c-.52,5.57-4.64,59.94,28,90.91h7.35c32.6-31,28.48-85.34,28-90.91Z"/><path class="cls-33" d="M107.51,14.8H58.37C58,20.37,54.6,74.74,81.15,105.71h3.58C111.29,74.74,107.93,20.37,107.51,14.8Z"/><path class="cls-34" d="M102.24,14.8H63.64c-.33,5.57-3,59.94,17.9,90.91h2.81C105.21,74.74,102.57,20.37,102.24,14.8Z"/><path class="cls-35" d="M95,73.85c8.57-23.35,9.47-49.42,9.21-52.84L77.67,25.12C79.42,40.18,85.44,51.6,95,73.85Z"/><path class="cls-36" d="M45.77,25.12h-.38c-.26,3.42.69,28.46,12.08,51.07,7.45-17.32,9.08-29.5,10.26-41.14A216.19,216.19,0,0,1,45.77,25.12Z"/><path class="cls-37" d="M93.1,14.8h-19c-.16,5.57-1.46,59.94,8.82,90.91h1.39C94.56,74.74,93.26,20.37,93.1,14.8Z"/><path class="cls-38" d="M68.14,52c-.26,3.42,1,26.56,12.35,49.18-.53-22.88,1.25-33,2.44-44.66C81.68,56.08,68.14,52,68.14,52Z"/><path class="cls-39" d="M41.31,14.8c-.12,1-.38,3.6-.5,7.33,7.35-1,29.83-3.79,40.77-3.79s33.43,2.83,40.77,3.79c-.12-3.73-.38-6.33-.5-7.33Z"/><path class="cls-40" d="M120.15,10.18H42.28A3.5,3.5,0,0,0,39,14.9L39,15a1.51,1.51,0,0,0,1.4.88h81.68a1.51,1.51,0,0,0,1.4-.88l0-.06A3.5,3.5,0,0,0,120.15,10.18Z"/><rect class="cls-41" x="95.88" y="10.18" width="16.76" height="5.65"/><rect class="cls-42" x="107.39" y="10.18" width="5.25" height="5.65"/><path class="cls-43" d="M90.43,10.18H56.63c-.25,1.89-.52,3.78-.88,5.65H90.47C90.51,13.95,90.52,12.06,90.43,10.18Z"/><path class="cls-44" d="M83.14,11.27H72.82c-.05,1.52-.18,3-.24,4.56H83.32C83.29,14.31,83.2,12.79,83.14,11.27Z"/><rect class="cls-45" x="51.32" y="11.27" width="16.01" height="4.56"/><path class="cls-46" d="M88.82,59.06c-32.28-1.23-42.71-19-43-19.4.65,17.33,5.87,46.83,31.63,66h8.2c21.77-16.24,28.87-39.82,30.94-57.2C111.69,55.5,93.43,59.24,88.82,59.06Z"/><g class="cls-47"><polygon class="cls-48" points="100.55 27 108.5 20.47 102.27 28.66 115.51 29.47 102.31 31.04 115.51 45.66 100.65 32.76 99.65 43 98.27 32.8 91.17 38.81 96.55 31.15 84.46 30.14 96.51 28.76 87.57 18.41 98.16 27.04 99.17 8.63 100.55 27"/></g><polygon class="cls-49" points="93.58 105.86 69.65 105.86 71.82 101.65 91.4 101.65 93.58 105.86"/><path class="cls-50" d="M92.78,105.86h.79l-2.18-4.21h-.65C91,102.18,92.59,105.37,92.78,105.86Z"/><path class="cls-51" d="M72.46,101.65h-.63l-2.18,4.21h.75C70.61,105.46,72,102.71,72.46,101.65Z"/><path class="cls-52" d="M88,105.86h2.36a24.32,24.32,0,0,1-2-4.21H87A35.58,35.58,0,0,0,88,105.86Z"/><path class="cls-53" d="M80.5,102.19c0-.18.07-.36.11-.54H78a27,27,0,0,1-1.42,4.21h3.62A30.5,30.5,0,0,1,80.5,102.19Z"/><path class="cls-54" d="M82.71,101.65h2c.33.88.62,1.78,1,2.65.21.53.44,1,.67,1.56H82.77Q82.74,103.76,82.71,101.65Z"/><path class="cls-55" d="M76.88,101.65H74.21a29.82,29.82,0,0,1-1.83,4.19v0h3.18C75.53,105.49,76.51,101.65,76.88,101.65Z"/><path class="cls-56" d="M81.61,105.86h-12a26.94,26.94,0,0,1,4.88,3.32c1.68,1.62,1.45,7.77,7.09,7.77s5.41-6.15,7.09-7.77a26.94,26.94,0,0,1,4.88-3.32Z"/><path class="cls-57" d="M81.61,105.86H72.76a20.7,20.7,0,0,1,3.61,3.32c1.24,1.62,2.29,10.72,5.24,7.77,1.11-1.11,4-6.15,5.24-7.77a20.7,20.7,0,0,1,3.61-3.32Z"/><path class="cls-58" d="M87.68,105.86a10.89,10.89,0,0,0-2.39,3.63c-.73,2.4-1.51,5.26-3.78,7.45,0,0,.07,0,.1,0,3-.82,4-6.15,5.24-7.77a20.68,20.68,0,0,1,3.61-3.32Z"/><path class="cls-59" d="M85.43,105.86h-8c.05.21.11.41.15.63.3,1.55,1.53,3,2.15,4.5A36.34,36.34,0,0,1,81,114.74a19.94,19.94,0,0,0,1.93-2.24A13.22,13.22,0,0,1,85.43,105.86Z"/><path class="cls-60" d="M82.71,105.86h-7a50,50,0,0,1,3,5.41,12.85,12.85,0,0,0,3.11,3.41A24.92,24.92,0,0,1,82.71,105.86Z"/><path class="cls-61" d="M69.9,106a25.43,25.43,0,0,1,4.62,3.18c1.38,1.33,1.47,5.71,4.58,7.23.66,1.1,1.46,1.58,2.5.54,5.64,0,5.41-6.15,7.09-7.77A25.43,25.43,0,0,1,93.32,106Z"/><path class="cls-62" d="M69.65,105.86a117.28,117.28,0,0,1,23.93-.15A120.3,120.3,0,0,1,69.65,105.86Z"/><path class="cls-63" d="M69.65,105.86a117.28,117.28,0,0,1,23.93-.15A120.3,120.3,0,0,1,69.65,105.86Z"/><path class="cls-64" d="M92.16,103.13l-.76-1.48H71.82l-.64,1.24A55.48,55.48,0,0,0,92.16,103.13Z"/><path class="cls-65" d="M116.58,211.23V180.45c0-6.05-4.23-11-9.45-11H56c-5.22,0-9.45,4.91-9.45,11v30.78Z"/><path class="cls-66" d="M42.77,203.86,41,208.14h81.12l-1.74-4.29a2.85,2.85,0,0,0-2.64-1.78H45.41A2.85,2.85,0,0,0,42.77,203.86Z"/><path class="cls-67" d="M120.41,203.86a2.85,2.85,0,0,0-2.64-1.78H45.41a2.85,2.85,0,0,0-2.64,1.78L41,208.14h1l1.7-3.61a2.82,2.82,0,0,1,2.58-1.5h70.65a2.82,2.82,0,0,1,2.58,1.5l1.7,3.61h1Z"/><path class="cls-68" d="M84.65,116.22H78.53S76,150.58,63.36,163.78H99.82C87.18,150.58,84.65,116.22,84.65,116.22Z"/><path class="cls-69" d="M84.65,116.22H78.53S76,150.58,63.36,163.78H99.82C87.18,150.58,84.65,116.22,84.65,116.22Z"/><path class="cls-68" d="M84.3,116.22H78.88s-2.24,34.37-13.42,47.56H97.72C86.54,150.58,84.3,116.22,84.3,116.22Z"/><path class="cls-70" d="M84,116.22H79.22s-2,34.37-11.74,47.56H95.7C85.91,150.58,84,116.22,84,116.22Z"/><path class="cls-71" d="M82.84,116.22H81.25s-1.31,34.37-7.86,47.56h18.9C85.74,150.58,82.84,116.22,82.84,116.22Z"/><path class="cls-72" d="M82.84,116.22h-.74s-.61,34.37-3.64,47.56h8.76C84.18,150.58,82.84,116.22,82.84,116.22Z"/><path class="cls-73" d="M77.5,124.93c2.93,1.55,6.75.75,8.22.31-.8-5.37-1.07-9-1.07-9H78.53S78.25,119.8,77.5,124.93Z"/><path class="cls-74" d="M99.22,160.28H64a8.72,8.72,0,0,0-7.83,9.21h50.93A8.72,8.72,0,0,0,99.22,160.28Z"/><path class="cls-75" d="M99.22,160.28H64a8.72,8.72,0,0,0-7.83,9.21h50.93A8.72,8.72,0,0,0,99.22,160.28Z"/><path class="cls-74" d="M98.26,161.75H64.92s-7.4.53-7.4,7.74h48.14C105.66,162.28,98.26,161.75,98.26,161.75Z"/><path class="cls-76" d="M81.59,161.75H64.92a9.94,9.94,0,0,0-2.54.63c-.53,1.78-2.1,7.11-1.88,7.11H97.34c-.54-1.26-2-6.88-2.43-7.74Z"/><polygon class="cls-77" points="85.8 169.49 91.33 169.49 89.29 161.75 86.02 161.75 85.8 169.49"/><polygon class="cls-78" points="67.64 161.75 66.34 169.49 83.58 169.49 83.58 161.75 67.64 161.75"/><path class="cls-79" d="M87.43,112H75.75a5.86,5.86,0,0,0-2.16,3.78c-.44,3.68,3.13,7,8,7s8.44-3.29,8-7A5.86,5.86,0,0,0,87.43,112Z"/><path class="cls-80" d="M87.43,112H75.75a5.86,5.86,0,0,0-2.16,3.78c-.45,3.79,3.13,7,8,7s8.43-3.34,8-7A5.86,5.86,0,0,0,87.43,112Z"/><path class="cls-81" d="M86.88,112H76.29a6,6,0,0,0-2,3.78c-.39,3.68,2.84,7,7.26,7s7.65-3.29,7.26-7A6,6,0,0,0,86.88,112Z"/><path class="cls-82" d="M85.39,112H77.78a7,7,0,0,0-1.41,3.78c-.28,3.68,2,7,5.21,7s5.5-3.29,5.21-7A7,7,0,0,0,85.39,112Z"/><path class="cls-83" d="M84.12,112H80a11,11,0,0,0-.74,3.78c-.13,3.68,1.16,7,2.9,7s3-3.29,2.8-7A11.12,11.12,0,0,0,84.12,112Z"/><path class="cls-84" d="M89.59,115.83c0-.07,0-.14,0-.21-4.29,4.39-11.07,3.86-16,.83,0,4.45,4.76,6.65,8.47,6.32.09,0,.18,0,.27,0,4.52-.31,7.71-3.45,7.3-6.93Z"/><path class="cls-65" d="M126.54,214.85l-1-4.84a2.4,2.4,0,0,0-2.23-1.87h-84A2.4,2.4,0,0,0,37.05,210l-1,4.84Z"/><path class="cls-85" d="M125.55,210a2.4,2.4,0,0,0-2.23-1.87h-84A2.4,2.4,0,0,0,37.05,210l-1,4.84h1.36l1-3.94a2.26,2.26,0,0,1,2.17-1.52h81.51a2.26,2.26,0,0,1,2.17,1.52l1,3.94h1.36Z"/><path class="cls-86" d="M108.21,192.33V180a4.81,4.81,0,0,1-4.81-4.81H59A4.81,4.81,0,0,1,54.17,180v12.37A4.81,4.81,0,0,1,59,197.14h44.42A4.81,4.81,0,0,1,108.21,192.33Z"/><path class="cls-87" d="M107.39,191.76V180.54a4.52,4.52,0,0,1-4.66-4.37H59.66A4.52,4.52,0,0,1,55,180.54v11.23a4.52,4.52,0,0,1,4.66,4.37h43.07A4.52,4.52,0,0,1,107.39,191.76Z"/><path class="cls-88" d="M104.29,177.93a4.77,4.77,0,0,1-.89-2.77h-3.12c-2.81,7.54-9.87,22-9.87,22h3.34S104,178.62,104.29,177.93Z"/><path class="cls-89" d="M68.35,175.16,58.06,194.33a4.77,4.77,0,0,1,.92,2.81H61.7l13.26-22Z"/><circle class="cls-65" cx="61.95" cy="177.85" r="1.19"/><circle class="cls-90" cx="61.95" cy="177.85" r="0.88"/><circle class="cls-65" cx="100.44" cy="177.85" r="1.19"/><circle class="cls-91" cx="100.44" cy="177.85" r="0.88"/><circle class="cls-65" cx="61.95" cy="194.4" r="1.19"/><circle class="cls-92" cx="61.95" cy="194.4" r="0.88"/><circle class="cls-65" cx="100.44" cy="194.4" r="1.19"/><circle class="cls-93" cx="100.44" cy="194.4" r="0.88"/><path class="cls-94" d="M123.46,15l0-.06a3.5,3.5,0,0,0-3.32-4.71H42.28A3.5,3.5,0,0,0,39,14.9L39,15a1.51,1.51,0,0,0,1.4.88h.53a1.54,1.54,0,0,1-1.38-.71l0,0c-.92-1.82.87-3.81,3.28-3.81h76.86c2.41,0,4.2,2,3.28,3.81l0,0a1.54,1.54,0,0,1-1.38.71h.53A1.51,1.51,0,0,0,123.46,15Z"/><g class="cls-95"><ellipse class="cls-96" cx="82.08" cy="116.22" rx="3.25" ry="7.04" transform="matrix(0.86, -0.51, 0.51, 0.86, -48.08, 58.74)"/></g><g class="cls-97"><ellipse class="cls-98" cx="153.22" cy="21.01" rx="7.78" ry="16.84" transform="translate(11 81.77) rotate(-30.94)"/></g><g class="cls-99"><ellipse class="cls-100" cx="10.95" cy="27.15" rx="7.79" ry="16.87" transform="translate(-12.4 9.49) rotate(-30.94)"/></g><g class="cls-101"><ellipse class="cls-102" cx="109.32" cy="13.55" rx="13.55" ry="29.33" transform="translate(95.21 122.79) rotate(-89.71)"/></g><g class="cls-103"><ellipse class="cls-104" cx="109.32" cy="13.55" rx="10.16" ry="10.22"/></g><g class="cls-105"><ellipse class="cls-106" cx="109.46" cy="13.55" rx="1.39" ry="1.44"/></g><g class="cls-107"><ellipse class="cls-108" cx="88.57" cy="166.3" rx="10.16" ry="10.22"/></g><g class="cls-105"><ellipse class="cls-109" cx="88.71" cy="166.3" rx="1.39" ry="1.44"/></g><g class="cls-110"><ellipse class="cls-111" cx="94.95" cy="32.9" rx="15.89" ry="29.55" transform="translate(27.14 107.06) rotate(-66.67)"/></g><g class="cls-112"><ellipse class="cls-113" cx="63.14" cy="205.48" rx="7.51" ry="13.96" transform="translate(-150.54 182.08) rotate(-66.67)"/></g><g class="cls-114"><ellipse class="cls-115" cx="88.19" cy="164.89" rx="5.97" ry="9.63" transform="translate(-72.23 68.81) rotate(-30.94)"/></g><path class="cls-116" d="M149,12.23a14.54,14.54,0,0,0-5-1.83,18.74,18.74,0,0,0-3.57-.2c-.58,0-1.15.07-1.71.14A27.21,27.21,0,0,0,126,15.75a33.68,33.68,0,0,0-3.73,4c0-.23,0-.48,0-.7-.08-1.28-.16-2.29-.24-3.07v-.14h.08a1.51,1.51,0,0,0,1.4-.88l0-.06a3.5,3.5,0,0,0-3.32-4.71H42.28A3.5,3.5,0,0,0,39,14.9L39,15a1.51,1.51,0,0,0,1.4.88h.83V16c-.09.91-.19,2.18-.27,3.76a33.68,33.68,0,0,0-3.73-4,27.79,27.79,0,0,0-8-4.32,22.38,22.38,0,0,0-6.4-1.23,18.74,18.74,0,0,0-3.57.2,12.9,12.9,0,0,0-1.65.37l-.84.28a15.62,15.62,0,0,0-2.52,1.18q-.42.24-.83.51A16.79,16.79,0,0,0,11,14.64q-.37.36-.73.75a18.17,18.17,0,0,0-4.56,13.5,33.42,33.42,0,0,0,4,13.61q.5,1,1.06,2,1.15,2,2.48,3.93a55,55,0,0,0,4.33,5.45,58.86,58.86,0,0,0,5,4.89A126.25,126.25,0,0,0,53.23,78.25a84,84,0,0,0,18.7,23.4h-.1l-.64,1.24h0l-1.54,3,.25.14.34.19,0,0,.46.27h0l.49.29.12.07.54.34.13.09.59.39,0,0,.57.41.12.09.55.43.1.09c.18.15.35.3.51.46a2.66,2.66,0,0,1,.42.57l.08.14a7.42,7.42,0,0,1,.33.71l.12.3.18.46.25.68h-.16a5.86,5.86,0,0,0-2.16,3.78,5.41,5.41,0,0,0,0,.63h0s0,0,0,0a5.26,5.26,0,0,0,0,.75,6.3,6.3,0,0,0,4.28,4.94c-.11.86-.24,1.78-.38,2.77h0c-1.44,9.8-4.67,25.61-11.34,35.35H64a8.72,8.72,0,0,0-7.83,9.21H56c-5.22,0-9.45,4.91-9.45,11v21.63H45.41a2.85,2.85,0,0,0-2.64,1.78L41,208.14H39.29A2.4,2.4,0,0,0,37.05,210l-1,4.84h90.49l-1-4.84a2.4,2.4,0,0,0-2.23-1.87h-1.16l-1.74-4.29a2.85,2.85,0,0,0-2.64-1.78h-1.19V180.45c0-6.05-4.23-11-9.45-11h-.07a8.72,8.72,0,0,0-7.83-9.21H97c-6.61-9.65-9.84-25.23-11.3-35h0c-.15-1-.28-2-.4-2.85a1.57,1.57,0,0,0,.38-.13,1.68,1.68,0,0,0,.58-.65l.41-.26h0q.28-.19.54-.39l.06,0q.24-.19.45-.4l.09-.09c.13-.13.25-.26.37-.39l.11-.13c.1-.12.2-.25.29-.38l.12-.19c.08-.12.15-.24.22-.36l.12-.24c.06-.11.11-.23.16-.34s.07-.19.1-.29.08-.21.11-.32.05-.23.07-.34,0-.19.06-.29,0-.28,0-.41,0-.16,0-.24a5.15,5.15,0,0,0,0-.67h0A5.86,5.86,0,0,0,87.43,112h-.11a8.42,8.42,0,0,1,1.38-2.87c.16-.15.33-.31.51-.46l.1-.08.55-.43.12-.09.58-.41h0l.6-.4.13-.09.54-.34.12-.07.49-.3h0l.46-.27,0,0,.34-.19.26-.14-.07-.14h0l-2.1-4.05h-.15a84,84,0,0,0,18.7-23.4,126.26,126.26,0,0,0,30.62-19.52q1.76-1.53,3.38-3.2a56.36,56.36,0,0,0,4.56-5.27q.7-.92,1.37-1.88,1.33-1.91,2.48-3.93.56-1,1.06-2a36.43,36.43,0,0,0,3.73-10.72C158.78,21.85,154.22,15.28,149,12.23ZM48,68.86c-.81-.41-1.7-.87-2.65-1.4l-.08,0c-1-.53-2-1.11-3-1.76l-.08-.05c-1-.65-2.13-1.35-3.23-2.11l-.12-.08c-1.09-.76-2.2-1.58-3.32-2.45l-.16-.13q-.82-.65-1.64-1.34h0A50.89,50.89,0,0,1,25,50.06c-5-7.14-7.89-14.24-8.49-19.86A13.89,13.89,0,0,1,17.31,23a7.7,7.7,0,0,1,.76-1.32,6.7,6.7,0,0,1,3.61-2.54c7.06-2.12,14.15,9,19.14,10.53A114.83,114.83,0,0,0,49,69.35l-.94-.46ZM40.45,27.38l.31,0c0,.05,0,.1,0,.15Zm82,0,.33,0-.33.13C122.41,27.46,122.41,27.4,122.41,27.35Zm-4.22,30.32c.65-2.35,1.21-4.67,1.68-6.94s.87-4.49,1.19-6.64.57-4.24.77-6.24c.28-2.91.44-5.64.52-8.13,4.91-1.45,11.86-12.28,18.82-10.61l.32.08c8.23,2.47,6.72,16.6-3.29,30.88-7.13,10.16-18.23,16.49-24,19.3A102.16,102.16,0,0,0,118.19,57.67Z"/></g></g></g></g></svg>