<svg xmlns="http://www.w3.org/2000/svg" xmlns:xlink="http://www.w3.org/1999/xlink" viewBox="0 0 750 500"><defs><style>.cls-1{fill:url(#Degradado_sin_nombre_54);}.cls-10,.cls-12,.cls-13,.cls-14,.cls-15,.cls-16,.cls-2,.cls-5,.cls-7,.cls-9{fill:none;}.cls-15,.cls-16,.cls-2{stroke:#fcfcfc;}.cls-2{stroke-linecap:round;stroke-linejoin:round;}.cls-10,.cls-12,.cls-13,.cls-14,.cls-15,.cls-16,.cls-2,.cls-4,.cls-5,.cls-7,.cls-9{stroke-width:2px;}.cls-3{fill:#fcfcfc;}.cls-10,.cls-4{stroke:#fff;}.cls-10,.cls-12,.cls-13,.cls-14,.cls-15,.cls-16,.cls-4,.cls-5,.cls-7,.cls-9{stroke-miterlimit:10;}.cls-5{stroke:url(#Degradado_sin_nombre_54-2);}.cls-6{fill:url(#Degradado_sin_nombre_51);}.cls-7{stroke:url(#Degradado_sin_nombre_51-2);}.cls-8{fill:url(#linear-gradient);}.cls-9{stroke:url(#Degradado_sin_nombre_47);}.cls-11{fill:url(#Degradado_sin_nombre_43);}.cls-12{stroke:url(#Degradado_sin_nombre_43-2);}.cls-13{stroke:url(#Degradado_sin_nombre_43-3);}.cls-14{stroke:url(#Degradado_sin_nombre_43-4);}.cls-16{stroke-dasharray:11.83 11.83;}.cls-17{font-size:72px;}.cls-17,.cls-37,.cls-40,.cls-44,.cls-49{fill:#fff;}.cls-17,.cls-18{font-family:Anurati-Regular, Anurati;}.cls-18,.cls-37,.cls-40,.cls-44{font-size:14px;}.cls-19{letter-spacing:-0.35em;}.cls-20{letter-spacing:-0.25em;}.cls-21{letter-spacing:-0.12em;}.cls-22{letter-spacing:-0.13em;}.cls-23{letter-spacing:-0.23em;}.cls-24{letter-spacing:-0.17em;}.cls-25{letter-spacing:-0.27em;}.cls-26{letter-spacing:-0.41em;}.cls-27{letter-spacing:-0.08em;}.cls-28{letter-spacing:-0.43em;}.cls-29{letter-spacing:-0.11em;}.cls-30{letter-spacing:-0.12em;}.cls-31{letter-spacing:-0.28em;}.cls-32{letter-spacing:-0.36em;}.cls-33{fill:url(#Degradado_sin_nombre_54-3);}.cls-34{fill:url(#Degradado_sin_nombre_43-5);}.cls-35{fill:url(#linear-gradient-2);}.cls-36{fill:url(#linear-gradient-20);}.cls-37,.cls-40,.cls-44{font-family:FuturaBT-Medium, Futura Md BT;}.cls-37,.cls-47{letter-spacing:-0.04em;}.cls-38{letter-spacing:-0.02em;}.cls-39{letter-spacing:0em;}.cls-40{letter-spacing:-0.02em;}.cls-41{letter-spacing:-0.04em;}.cls-42{letter-spacing:-0.09em;}.cls-43{letter-spacing:-0.02em;}.cls-45{letter-spacing:-0.03em;}.cls-46{letter-spacing:0.02em;}.cls-48{letter-spacing:0em;}.cls-49{font-size:19px;font-family:FuturaBT-Bold, Futura Md BT;font-weight:700;}.cls-50{letter-spacing:-0.05em;}</style><linearGradient id="Degradado_sin_nombre_54" x1="54.28" y1="234.91" x2="211.95" y2="234.91" gradientUnits="userSpaceOnUse"><stop offset="0" stop-color="#ffe339"/><stop offset="1" stop-color="#ff9327"/></linearGradient><linearGradient id="Degradado_sin_nombre_54-2" x1="102" y1="459.11" x2="116.51" y2="459.11" xlink:href="#Degradado_sin_nombre_54"/><linearGradient id="Degradado_sin_nombre_51" x1="378.7" y1="234.91" x2="541.27" y2="234.91" gradientUnits="userSpaceOnUse"><stop offset="0" stop-color="#ff4b6b"/><stop offset="0.99" stop-color="#ff245a"/></linearGradient><linearGradient id="Degradado_sin_nombre_51-2" x1="411.51" y1="453.65" x2="426.43" y2="453.65" xlink:href="#Degradado_sin_nombre_51"/><linearGradient id="linear-gradient" x1="211.95" y1="234.91" x2="378.7" y2="234.91" gradientUnits="userSpaceOnUse"><stop offset="0" stop-color="#ff8d29"/><stop offset="1" stop-color="#cd2d34"/></linearGradient><linearGradient id="Degradado_sin_nombre_47" x1="257.01" y1="460.23" x2="259.01" y2="460.23" gradientUnits="userSpaceOnUse"><stop offset="0" stop-color="#ff8d29"/><stop offset="1" stop-color="#ff6325"/></linearGradient><linearGradient id="Degradado_sin_nombre_43" x1="541.34" y1="234.91" x2="689.31" y2="234.91" gradientUnits="userSpaceOnUse"><stop offset="0" stop-color="#45f2a4"/><stop offset="1" stop-color="#0fa49f"/></linearGradient><linearGradient id="Degradado_sin_nombre_43-2" x1="585.9" y1="426.78" x2="603.48" y2="426.78" xlink:href="#Degradado_sin_nombre_43"/><linearGradient id="Degradado_sin_nombre_43-3" x1="585.9" y1="445.86" x2="603.48" y2="445.86" xlink:href="#Degradado_sin_nombre_43"/><linearGradient id="Degradado_sin_nombre_43-4" x1="585.9" y1="436.32" x2="603.48" y2="436.32" xlink:href="#Degradado_sin_nombre_43"/><linearGradient id="Degradado_sin_nombre_54-3" x1="61.19" y1="284.55" x2="203.56" y2="284.55" xlink:href="#Degradado_sin_nombre_54"/><linearGradient id="Degradado_sin_nombre_43-5" x1="560.6" y1="279.94" x2="688.52" y2="279.94" xlink:href="#Degradado_sin_nombre_43"/><linearGradient id="linear-gradient-2" x1="401.33" y1="279.94" x2="516.51" y2="279.94" gradientUnits="userSpaceOnUse"><stop offset="0" stop-color="#e09789"/><stop offset="0.99" stop-color="#ff245a"/></linearGradient><linearGradient id="linear-gradient-20" x1="223.8" y1="284.55" x2="366.17" y2="284.55" xlink:href="#linear-gradient"/></defs><title>Mesa de trabajo 1</title><g id="BACKGROUND"><rect width="750" height="500"/></g><g id="OBJECTS"><rect class="cls-1" x="54.28" y="215.49" width="157.67" height="38.84"/><polyline class="cls-2" points="53.04 473.76 53.04 191.2 113.94 191.2"/><circle class="cls-3" cx="53.04" cy="473.65" r="2.26"/><polygon class="cls-3" points="113.07 194.19 118.25 191.2 113.07 188.21 113.07 194.19"/><ellipse class="cls-4" cx="77.44" cy="436.06" rx="9.77" ry="10.62"/><path class="cls-4" d="M89.95,478.22h-25v-19.3a12.77,12.77,0,0,1,12.5-13h0a12.77,12.77,0,0,1,12.5,13Z"/><ellipse class="cls-4" cx="103" cy="436.06" rx="9.77" ry="10.62"/><path class="cls-4" d="M100.22,445.91h5.56a9.72,9.72,0,0,1,9.72,9.72v22.6a0,0,0,0,1,0,0h-25a0,0,0,0,1,0,0v-22.6a9.72,9.72,0,0,1,9.72-9.72Z"/><rect class="cls-5" x="103" y="458.93" width="12.5" height="0.38"/><rect class="cls-6" x="378.7" y="215.49" width="162.57" height="38.84"/><polyline class="cls-2" points="378.7 473.76 378.7 191.2 439.6 191.2"/><circle class="cls-3" cx="378.7" cy="473.65" r="2.26"/><polygon class="cls-3" points="438.72 194.19 443.9 191.2 438.72 188.21 438.72 194.19"/><path class="cls-4" d="M430.48,469.1h0a5.32,5.32,0,0,0-6.58,3.27h0a5.3,5.3,0,0,1-10,0h0a5.32,5.32,0,0,0-6.56-3.32h0c-4.67,1.47-8.65-3.77-6.21-8.16h0a5.74,5.74,0,0,0-1.6-7.41h0c-4-2.88-2.57-9.39,2.26-10.14h0a5.55,5.55,0,0,0,4.57-5.92h0c-.34-5.06,5.45-7.94,9-4.49h0a5.22,5.22,0,0,0,7.29,0h0c3.59-3.43,9.36-.52,9,4.55h0a5.55,5.55,0,0,0,4.53,6h0c4.82.78,6.22,7.3,2.19,10.16h0a5.74,5.74,0,0,0-1.65,7.4h0C439.15,465.39,435.13,470.61,430.48,469.1Z"/><ellipse class="cls-7" cx="418.97" cy="453.65" rx="6.46" ry="6.73"/><rect class="cls-8" x="211.95" y="215.49" width="166.75" height="38.84"/><polyline class="cls-2" points="212.1 473.76 212.1 191.2 273 191.2"/><circle class="cls-3" cx="212.1" cy="473.65" r="2.26"/><polygon class="cls-3" points="272.13 194.19 277.31 191.2 272.13 188.21 272.13 194.19"/><path class="cls-4" d="M273.87,443.29a16.64,16.64,0,0,1-7.5,14v13H249.64v-13a16.7,16.7,0,0,1-7.49-14c0-9.12,7.1-16.51,15.86-16.51S273.87,434.17,273.87,443.29Z"/><line class="cls-9" x1="258.01" y1="450.11" x2="258.01" y2="470.36"/><line class="cls-10" x1="248.81" y1="475.9" x2="267.21" y2="475.9"/><line class="cls-10" x1="253.62" y1="481.46" x2="262.4" y2="481.46"/><rect class="cls-11" x="541.34" y="215.49" width="147.97" height="38.84"/><rect class="cls-4" x="568.53" y="424.41" width="35.17" height="42.91"/><rect class="cls-4" x="577.11" y="417.59" width="35.17" height="42.91"/><line class="cls-12" x1="585.9" y1="426.78" x2="603.48" y2="426.78"/><line class="cls-13" x1="585.9" y1="445.86" x2="603.48" y2="445.86"/><line class="cls-14" x1="585.9" y1="436.32" x2="603.48" y2="436.32"/><polyline class="cls-2" points="541.27 473.76 541.27 191.2 610.71 191.2"/><circle class="cls-3" cx="541.27" cy="473.65" r="2.26"/><polygon class="cls-3" points="609.83 194.19 615.01 191.2 609.83 188.21 609.83 194.19"/><line class="cls-15" x1="55.38" y1="235.38" x2="61.38" y2="235.38"/><line class="cls-16" x1="73.21" y1="235.38" x2="706.15" y2="235.38"/><line class="cls-15" x1="712.06" y1="235.38" x2="718.06" y2="235.38"/><polygon class="cls-3" points="716.61 240.37 725.24 235.38 716.61 230.39 716.61 240.37"/><text class="cls-17" transform="translate(165.22 117.79)">T I M E L I N E</text><text class="cls-18" transform="translate(79.39 273.35)">R<tspan class="cls-19" x="10.65" y="0">A</tspan><tspan x="18.38" y="0">M</tspan><tspan class="cls-20" x="31.74" y="0">A</tspan><tspan class="cls-21" x="40.85" y="0">K</tspan><tspan x="49.1" y="0">RI</tspan><tspan class="cls-22" x="61.71" y="0">S</tspan><tspan x="71.13" y="0">HNA </tspan><tspan x="-18.21" y="16.8">MI</tspan><tspan class="cls-23" x="-2.89" y="16.8">S</tspan><tspan x="5.16" y="16.8">SI</tspan><tspan class="cls-24" x="18.36" y="16.8">O</tspan><tspan x="29.56" y="16.8">N VI </tspan><tspan class="cls-25" x="58.26" y="16.8">D</tspan><tspan class="cls-26" x="66.16" y="16.8">Y</tspan><tspan x="72.89" y="16.8">AL</tspan><tspan class="cls-27" x="94.1" y="16.8">A</tspan><tspan class="cls-26" x="105.52" y="16.8">Y</tspan><tspan x="112.26" y="16.8">A </tspan><tspan x="1.18" y="33.6">N</tspan><tspan class="cls-28" x="12.63" y="33.6">A</tspan><tspan class="cls-29" x="19.19" y="33.6">R</tspan><tspan x="28.32" y="33.6">E</tspan><tspan class="cls-30" x="37.23" y="33.6">N</tspan><tspan class="cls-31" x="47.04" y="33.6">D</tspan><tspan x="54.71" y="33.6">RAP</tspan><tspan class="cls-32" x="88.87" y="33.6">U</tspan><tspan x="94.81" y="33.6">R</tspan></text><path class="cls-33" d="M85.74,269.33l2.3,4H85.89l-3.25-5.62h1.67a1.89,1.89,0,0,0,1.86-1.88,1.74,1.74,0,0,0-.56-1.3,1.78,1.78,0,0,0-1.3-.55H80.57l-.21-.21-1-1.67h4.92A3.73,3.73,0,0,1,88,265.87a3.54,3.54,0,0,1-.66,2.12A3.61,3.61,0,0,1,85.74,269.33Z"/><path class="cls-33" d="M93.77,271.48l-1,1.88H90.75l5.6-11.21,3.74,7.48H98l-1.64-3.29-1.65,3.29Zm8.18,1.88H99.87l-.92-1.86H101Z"/><path class="cls-33" d="M97.78,262.15l5.62,5.6,5.6-5.6v11.21h-1.85v-6.7l-3.75,3.74-5.62-5.64Z"/><path class="cls-33" d="M114.86,271.48l-1,1.88h-2.07l5.6-11.21,3.74,7.48h-2.1l-1.64-3.29-1.65,3.29Zm8.18,1.88H121l-.92-1.86h2.07Z"/><path class="cls-33" d="M122.91,267.75l5.6,5.6h-2.63L121,268.54l-.78-.77L121,267l4.85-4.83h2.63ZM121,267l4.85-4.83Zm4.85,6.37L121,268.54Z"/><path class="cls-33" d="M134.84,269.33l2.3,4H135l-3.25-5.62h1.67a1.89,1.89,0,0,0,1.86-1.88,1.74,1.74,0,0,0-.56-1.3,1.78,1.78,0,0,0-1.3-.55h-3.74l-.21-.21-1-1.67h4.92a3.73,3.73,0,0,1,3.73,3.73,3.54,3.54,0,0,1-.66,2.12A3.61,3.61,0,0,1,134.84,269.33Z"/><path class="cls-33" d="M141,271.48l-1.86,1.88V262.15L141,264Z"/><path class="cls-33" d="M144.37,268.69a3.15,3.15,0,0,1-2.31-1,3.21,3.21,0,0,1-1-2.33,3.16,3.16,0,0,1,1-2.3,3.11,3.11,0,0,1,2.31-1V264a1.42,1.42,0,0,0-.55.1,1.29,1.29,0,0,0-.46.31,1.36,1.36,0,0,0-.39,1,1.37,1.37,0,0,0,.39,1,1.35,1.35,0,0,0,1,.42h2.79a3.26,3.26,0,1,1,0,6.53v-1.88a1.42,1.42,0,0,0,.55-.1,1.32,1.32,0,0,0,.46-.29,1.25,1.25,0,0,0,.29-.45,1.41,1.41,0,0,0,.11-.55,1.39,1.39,0,0,0-.42-1,1.34,1.34,0,0,0-1-.42Z"/><path class="cls-33" d="M159.86,262.15v11.21H158v-4.66h-5.6v4.66h-1.86v-4.66l1.86-1.88H158v-4.66Z"/><path class="cls-33" d="M171.31,262.15v11.18h0L162,265v-2.83l7.45,6.71v-6.71Z"/><path class="cls-33" d="M177.17,271.48l-1,1.88h-2.07l5.6-11.21,3.74,7.48h-2.1l-1.64-3.29-1.65,3.29Zm8.18,1.88h-2.09l-.92-1.86h2.07Z"/><path class="cls-33" d="M61.19,278.95l5.62,5.6,5.6-5.6v11.21H70.56v-6.7L66.8,287.2l-5.62-5.64Z"/><path class="cls-33" d="M76.41,288.28l-1.86,1.88V278.95l1.86,1.85Z"/><path class="cls-33" d="M79.77,285.49a3.15,3.15,0,0,1-2.31-1,3.21,3.21,0,0,1-1-2.33,3.16,3.16,0,0,1,1-2.3,3.11,3.11,0,0,1,2.31-1v1.88a1.42,1.42,0,0,0-.55.1,1.29,1.29,0,0,0-.46.31,1.44,1.44,0,0,0,0,2,1.35,1.35,0,0,0,1,.42h2.79a3.26,3.26,0,1,1,0,6.53v-1.88a1.42,1.42,0,0,0,.55-.1,1.31,1.31,0,0,0,.46-.29,1.24,1.24,0,0,0,.29-.45,1.41,1.41,0,0,0,.11-.55,1.39,1.39,0,0,0-.42-1,1.34,1.34,0,0,0-1-.42Z"/><path class="cls-33" d="M87.82,285.49a3.15,3.15,0,0,1-2.31-1,3.21,3.21,0,0,1-1-2.33,3.16,3.16,0,0,1,1-2.3,3.11,3.11,0,0,1,2.31-1v1.88a1.42,1.42,0,0,0-.55.1,1.29,1.29,0,0,0-.46.31,1.44,1.44,0,0,0,0,2,1.35,1.35,0,0,0,1,.42H90.6a3.26,3.26,0,1,1,0,6.53v-1.88a1.42,1.42,0,0,0,.55-.1,1.31,1.31,0,0,0,.46-.29,1.24,1.24,0,0,0,.29-.45,1.41,1.41,0,0,0,.11-.55,1.39,1.39,0,0,0-.42-1,1.34,1.34,0,0,0-1-.42Z"/><path class="cls-33" d="M97.66,288.28l-1.86,1.88V278.95l1.86,1.85Z"/><path class="cls-33" d="M107.31,280.6a5.55,5.55,0,1,1-4-1.65A5.36,5.36,0,0,1,107.31,280.6Zm-6.6,1.32a3.74,3.74,0,1,0,2.65-1.09A3.58,3.58,0,0,0,100.71,281.92Z"/><path class="cls-33" d="M118.27,278.95v11.18h0L109,281.78v-2.83l7.45,6.71v-6.71Z"/><path class="cls-33" d="M126,278.95l4.57,9.12-1.05,2.09-5.6-11.21Z"/><path class="cls-33" d="M134.06,288.28l-1.86,1.88V278.95l1.86,1.85Z"/><path class="cls-33" d="M147,284.55a5.3,5.3,0,0,1-.43,2.16,6.11,6.11,0,0,1-1.21,1.79,5.67,5.67,0,0,1-1.79,1.21,5.38,5.38,0,0,1-2.17.45h-3.73l1.86-1.88h1.86a3.84,3.84,0,0,0,1.46-.28,3.67,3.67,0,0,0,1.19-.81,4,4,0,0,0,.8-1.19,3.69,3.69,0,0,0,0-2.89,3.83,3.83,0,0,0-.81-1.19,3.91,3.91,0,0,0-1.19-.81,3.83,3.83,0,0,0-1.44-.28h-1.86l-1.86-1.88h3.73a5.43,5.43,0,0,1,2.17.45,5.78,5.78,0,0,1,1.78,1.21,5.89,5.89,0,0,1,1.22,1.79A5.3,5.3,0,0,1,147,284.55Z"/><path class="cls-33" d="M151.13,286.08h0l-3.18,4.09h-2.4l4.4-5.6-4.4-5.6h2.4l3.18,4.09,3.19-4.09h2.37l-4.37,5.6Zm0,0-3.18,4.08,3.18-4.09Z"/><path class="cls-33" d="M156,288.28l-1,1.88H153l5.6-11.21,3.74,7.48h-2.1l-1.64-3.29-1.65,3.29Zm8.18,1.88H162.1l-.92-1.86h2.07Z"/><path class="cls-33" d="M166.73,278.95v6.79l-1.86,1.88v-8.67Zm5.6,9.33v1.88h-7.47l1.86-1.88Z"/><path class="cls-33" d="M177.22,288.28l-1,1.88h-2.07l5.6-11.21,3.74,7.48h-2.1l-1.64-3.29-1.65,3.29Zm8.18,1.88h-2.09l-.92-1.86h2.07Z"/><path class="cls-33" d="M190.49,286.08h0l-3.18,4.09h-2.4l4.4-5.6-4.4-5.6h2.4l3.18,4.09,3.19-4.09h2.37l-4.37,5.6Zm0,0-3.18,4.08,3.18-4.09Z"/><path class="cls-33" d="M195.38,288.28l-1,1.88h-2.07l5.6-11.21,3.74,7.48h-2.1L198,283.14l-1.65,3.29Zm8.18,1.88h-2.09l-.92-1.86h2.07Z"/><path class="cls-33" d="M89.88,295.75v11.18h0l-9.31-8.38v-2.83L88,302.46v-6.71Z"/><path class="cls-33" d="M95.75,305.08l-1,1.88H92.72l5.6-11.21,3.74,7.48H100l-1.64-3.29-1.65,3.29Zm8.18,1.88h-2.09l-.92-1.86H103Z"/><path class="cls-33" d="M104.93,302.93l2.3,4h-2.14l-3.25-5.62h1.67a1.89,1.89,0,0,0,1.86-1.88,1.74,1.74,0,0,0-.56-1.3,1.78,1.78,0,0,0-1.3-.55H99.76l-.21-.21-1-1.67h4.92a3.73,3.73,0,0,1,3.73,3.73,3.54,3.54,0,0,1-.66,2.12A3.61,3.61,0,0,1,104.93,302.93Z"/><path class="cls-33" d="M115.18,295.75v1.88h-5.6l-1.86-1.88Zm-5.6,4.68h5.6v1.86h-7.47v-1.86Zm0,4.65h5.6V307h-7.47v-.15Z"/><path class="cls-33" d="M125.93,295.75v11.18h0l-9.31-8.38v-2.83l7.45,6.71v-6.71Z"/><path class="cls-33" d="M135.76,301.35a5.3,5.3,0,0,1-.43,2.16,6.11,6.11,0,0,1-1.21,1.79,5.67,5.67,0,0,1-1.79,1.21,5.38,5.38,0,0,1-2.17.45h-3.73l1.86-1.88h1.86a3.84,3.84,0,0,0,1.46-.28,3.67,3.67,0,0,0,1.19-.81,4,4,0,0,0,.8-1.19,3.69,3.69,0,0,0,0-2.89,3.83,3.83,0,0,0-.81-1.19,3.91,3.91,0,0,0-1.19-.81,3.83,3.83,0,0,0-1.44-.28H128.3l-1.86-1.88h3.73a5.43,5.43,0,0,1,2.17.45,5.78,5.78,0,0,1,1.78,1.21,5.89,5.89,0,0,1,1.22,1.79A5.3,5.3,0,0,1,135.76,301.35Z"/><path class="cls-33" d="M140.45,302.93l2.3,4H140.6l-3.25-5.62H139a1.89,1.89,0,0,0,1.86-1.88,1.74,1.74,0,0,0-.56-1.3,1.78,1.78,0,0,0-1.3-.55h-3.74l-.21-.21-1-1.67H139a3.73,3.73,0,0,1,3.73,3.73,3.54,3.54,0,0,1-.66,2.12A3.61,3.61,0,0,1,140.45,302.93Z"/><path class="cls-33" d="M148.48,305.08l-1,1.88h-2.07l5.6-11.21,3.74,7.48h-2.1l-1.64-3.29-1.65,3.29Zm8.18,1.88h-2.09l-.92-1.86h2.07Z"/><path class="cls-33" d="M166.67,299.49a3.73,3.73,0,0,1-3.73,3.74h-3.74V307h-1.86v-5.6h5.6a1.78,1.78,0,0,0,1.3-.55,1.8,1.8,0,0,0,.56-1.32,1.89,1.89,0,0,0-1.86-1.86h-3.74l-1.86-1.88h5.6a3.6,3.6,0,0,1,2.63,1.09A3.65,3.65,0,0,1,166.67,299.49Z"/><path class="cls-33" d="M177.59,302.29a4.46,4.46,0,0,1-1.37,3.31,4.66,4.66,0,0,1-8-3.31v-6.54h1.86v6.54a2.78,2.78,0,0,0,4.76,2,2.7,2.7,0,0,0,.84-2Z"/><path class="cls-33" d="M180.55,302.93l2.3,4H180.7l-3.25-5.62h1.67a1.89,1.89,0,0,0,1.86-1.88,1.74,1.74,0,0,0-.56-1.3,1.78,1.78,0,0,0-1.3-.55h-3.74l-.21-.21-1-1.67h4.92a3.73,3.73,0,0,1,3.73,3.73,3.54,3.54,0,0,1-.66,2.12A3.61,3.61,0,0,1,180.55,302.93Z"/><text class="cls-18" transform="translate(614.78 277.15)">I I T <tspan x="-57.69" y="16.8" xml:space="preserve"> K H A R A G P U R</tspan></text><path class="cls-34" d="M616.64,275.27l-1.86,1.88V265.94l1.86,1.85Z"/><path class="cls-34" d="M622.1,275.27l-1.86,1.88V265.94l1.86,1.85Z"/><path class="cls-34" d="M631.3,265.94v1.88h-3.73v9.33H625.7V265.94Z"/><path class="cls-34" d="M563.26,288.35l5.6,5.6h-2.63l-4.85-4.82-.78-.77.78-.78,4.85-4.83h2.63Zm-1.88-.77,4.85-4.83Zm4.85,6.37-4.85-4.82Z"/><path class="cls-34" d="M583.29,282.74v11.21h-1.86v-4.66h-5.6v4.66H574v-4.66l1.86-1.88h5.6v-4.66Z"/><path class="cls-34" d="M592.66,292.07l-1,1.88h-2.07l5.6-11.21,3.74,7.48h-2.1l-1.64-3.29-1.65,3.29Zm8.18,1.88h-2.09l-.92-1.86h2.07Z"/><path class="cls-34" d="M611.36,289.93l2.3,4h-2.14l-3.25-5.62h1.67a1.89,1.89,0,0,0,1.86-1.88,1.74,1.74,0,0,0-.56-1.3,1.78,1.78,0,0,0-1.3-.55h-3.74l-.21-.21-1-1.67h4.92a3.73,3.73,0,0,1,3.73,3.73,3.54,3.54,0,0,1-.66,2.12A3.6,3.6,0,0,1,611.36,289.93Z"/><path class="cls-34" d="M622.9,292.07l-1,1.88h-2.07l5.6-11.21,3.74,7.48h-2.1l-1.64-3.29-1.65,3.29Zm8.18,1.88H629l-.92-1.86h2.07Z"/><path class="cls-34" d="M643.67,290.81l1.86.62a5.24,5.24,0,0,1-.9,1,5.7,5.7,0,0,1-1.11.8,4.84,4.84,0,0,1-1.27.5,5.13,5.13,0,0,1-1.4.18,5.59,5.59,0,0,1-4-9.55,5.3,5.3,0,0,1,4-1.65,5.47,5.47,0,0,1,2.19.43,5.81,5.81,0,0,1,1.79,1.22l-1.34,1.32a3.72,3.72,0,0,0-6.36,2.63,3.68,3.68,0,0,0,3.73,3.73,3.81,3.81,0,0,0,1.55-.32A3.9,3.9,0,0,0,643.67,290.81Zm-2.82-3.39h4.68l-1.86,1.86h-2.82Z"/><path class="cls-34" d="M660.34,286.48a3.73,3.73,0,0,1-3.73,3.74h-3.74v3.73H651v-5.6h5.6a1.78,1.78,0,0,0,1.3-.55,1.8,1.8,0,0,0,.56-1.32,1.89,1.89,0,0,0-1.86-1.86h-3.74L651,282.74h5.6a3.6,3.6,0,0,1,2.63,1.09A3.65,3.65,0,0,1,660.34,286.48Z"/><path class="cls-34" d="M674.76,289.28a4.46,4.46,0,0,1-1.37,3.31,4.66,4.66,0,0,1-8-3.31v-6.54h1.86v6.54a2.78,2.78,0,0,0,4.76,2,2.7,2.7,0,0,0,.84-2Z"/><path class="cls-34" d="M686.22,289.93l2.3,4h-2.14l-3.25-5.62h1.67a1.89,1.89,0,0,0,1.86-1.88,1.74,1.74,0,0,0-.56-1.3,1.78,1.78,0,0,0-1.3-.55h-3.74l-.21-.21-1-1.67h4.92a3.73,3.73,0,0,1,3.73,3.73,3.54,3.54,0,0,1-.66,2.12A3.6,3.6,0,0,1,686.22,289.93Z"/><text class="cls-18" transform="translate(404.21 277.15)">J A D A V P U R<tspan x="-2.88" y="16.8">U N I V E R S I T Y</tspan></text><path class="cls-35" d="M406.86,275.27v1.88a3.65,3.65,0,0,1-2.65-1.08l1.35-1.34A1.78,1.78,0,0,0,406.86,275.27Zm2.13.29-.83-.83a1.75,1.75,0,0,0,.56-1.32v-7.48h1.89v7.48a3.67,3.67,0,0,1-1.11,2.65Zm.52.5-.52-.5Z"/><path class="cls-35" d="M420,275.27l-1,1.88H417l5.6-11.21,3.74,7.48h-2.1l-1.64-3.29L421,273.42Zm8.18,1.88h-2.09l-.92-1.86h2.07Z"/><path class="cls-35" d="M441.74,271.54a5.32,5.32,0,0,1-.43,2.16,6.12,6.12,0,0,1-1.21,1.79,5.68,5.68,0,0,1-1.79,1.21,5.38,5.38,0,0,1-2.17.45h-3.73l1.86-1.88h1.86a3.84,3.84,0,0,0,1.46-.28,3.68,3.68,0,0,0,1.19-.81,4,4,0,0,0,.8-1.19,3.69,3.69,0,0,0,0-2.89,3.82,3.82,0,0,0-.81-1.19,3.91,3.91,0,0,0-1.19-.81,3.83,3.83,0,0,0-1.44-.28h-1.86l-1.86-1.88h3.73a5.43,5.43,0,0,1,2.17.45,5.79,5.79,0,0,1,1.78,1.21,5.9,5.9,0,0,1,1.22,1.79A5.32,5.32,0,0,1,441.74,271.54Z"/><path class="cls-35" d="M451.25,275.27l-1,1.88h-2.07l5.6-11.21,3.74,7.48h-2.1l-1.64-3.29-1.65,3.29Zm8.18,1.88h-2.09l-.92-1.86h2.07Z"/><path class="cls-35" d="M465.7,265.94l4.57,9.12-1.05,2.09-5.6-11.21Z"/><path class="cls-35" d="M484.73,269.68a3.73,3.73,0,0,1-3.73,3.74h-3.74v3.73H475.4v-5.6H481a1.78,1.78,0,0,0,1.3-.55,1.8,1.8,0,0,0,.56-1.32,1.89,1.89,0,0,0-1.86-1.86h-3.74l-1.86-1.88H481a3.6,3.6,0,0,1,2.63,1.09A3.65,3.65,0,0,1,484.73,269.68Z"/><path class="cls-35" d="M499.15,272.48a4.47,4.47,0,0,1-1.37,3.31,4.66,4.66,0,0,1-8-3.31v-6.54h1.86v6.54a2.77,2.77,0,0,0,2.79,2.79,2.85,2.85,0,0,0,2.82-2.79Z"/><path class="cls-35" d="M510.61,273.13l2.3,4h-2.14l-3.25-5.62h1.67a1.89,1.89,0,0,0,1.86-1.88,1.74,1.74,0,0,0-.56-1.3,1.78,1.78,0,0,0-1.3-.55h-3.74l-.21-.21-1-1.67h4.92a3.73,3.73,0,0,1,3.73,3.73,3.54,3.54,0,0,1-.66,2.12A3.61,3.61,0,0,1,510.61,273.13Z"/><path class="cls-35" d="M410.66,289.28a4.46,4.46,0,0,1-1.37,3.31,4.66,4.66,0,0,1-8-3.31v-6.54h1.86v6.54a2.78,2.78,0,0,0,4.76,2,2.7,2.7,0,0,0,.84-2Z"/><path class="cls-35" d="M425.09,282.74v11.18h0l-9.31-8.38v-2.83l7.45,6.71v-6.71Z"/><path class="cls-35" d="M432.59,292.07l-1.86,1.88V282.74l1.86,1.85Z"/><path class="cls-35" d="M438.27,282.74l4.57,9.12-1.05,2.09-5.6-11.21Z"/><path class="cls-35" d="M455.44,282.74v1.88h-5.6L448,282.74Zm-5.6,4.68h5.6v1.86H448v-1.86Zm0,4.65h5.6v1.88H448v-.15Z"/><path class="cls-35" d="M466.73,289.93l2.3,4h-2.14l-3.25-5.62h1.67a1.89,1.89,0,0,0,1.86-1.88,1.74,1.74,0,0,0-.56-1.3,1.78,1.78,0,0,0-1.3-.55h-3.74l-.21-.21-1-1.67h4.92a3.73,3.73,0,0,1,3.73,3.73,3.54,3.54,0,0,1-.66,2.12A3.6,3.6,0,0,1,466.73,289.93Z"/><path class="cls-35" d="M477.8,289.28a3.15,3.15,0,0,1-2.31-1,3.21,3.21,0,0,1-1-2.33,3.17,3.17,0,0,1,1-2.3,3.11,3.11,0,0,1,2.31-1v1.88a1.42,1.42,0,0,0-.55.1,1.29,1.29,0,0,0-.46.31,1.37,1.37,0,0,0-.39,1,1.37,1.37,0,0,0,.39,1,1.35,1.35,0,0,0,1,.42h2.79a3.26,3.26,0,1,1,0,6.53v-1.88a1.42,1.42,0,0,0,.55-.1,1.3,1.3,0,0,0,.46-.29,1.24,1.24,0,0,0,.29-.45,1.37,1.37,0,0,0-.31-1.53,1.34,1.34,0,0,0-1-.42Z"/><path class="cls-35" d="M491.14,292.07l-1.86,1.88V282.74l1.86,1.85Z"/><path class="cls-35" d="M500.34,282.74v1.88h-3.73v9.33h-1.88V282.74Z"/><path class="cls-35" d="M510.95,289.87h0l-3.18,4.09h-2.39l4.4-5.6-4.4-5.6h2.39l3.18,4.09,3.19-4.09h2.37l-4.37,5.6Zm0,0-3.18,4.08,3.18-4.09Z"/><text class="cls-18" transform="translate(242.01 273.35)">R<tspan class="cls-19" x="10.65" y="0">A</tspan><tspan x="18.38" y="0">M</tspan><tspan class="cls-20" x="31.74" y="0">A</tspan><tspan class="cls-21" x="40.85" y="0">K</tspan><tspan x="49.1" y="0">RI</tspan><tspan class="cls-22" x="61.71" y="0">S</tspan><tspan x="71.13" y="0">HNA </tspan><tspan x="-18.21" y="16.8">MI</tspan><tspan class="cls-23" x="-2.89" y="16.8">S</tspan><tspan x="5.16" y="16.8">SI</tspan><tspan class="cls-24" x="18.36" y="16.8">O</tspan><tspan x="29.56" y="16.8">N VI </tspan><tspan class="cls-25" x="58.26" y="16.8">D</tspan><tspan class="cls-26" x="66.16" y="16.8">Y</tspan><tspan x="72.89" y="16.8">AL</tspan><tspan class="cls-27" x="94.1" y="16.8">A</tspan><tspan class="cls-26" x="105.52" y="16.8">Y</tspan><tspan x="112.26" y="16.8">A </tspan><tspan x="1.18" y="33.6">N</tspan><tspan class="cls-28" x="12.63" y="33.6">A</tspan><tspan class="cls-29" x="19.19" y="33.6">R</tspan><tspan x="28.32" y="33.6">E</tspan><tspan class="cls-30" x="37.23" y="33.6">N</tspan><tspan class="cls-31" x="47.04" y="33.6">D</tspan><tspan x="54.71" y="33.6">RAP</tspan><tspan class="cls-32" x="88.87" y="33.6">U</tspan><tspan x="94.81" y="33.6">R</tspan></text><path class="cls-36" d="M248.35,269.33l2.3,4H248.5l-3.25-5.62h1.67a1.89,1.89,0,0,0,1.86-1.88,1.74,1.74,0,0,0-.56-1.3,1.78,1.78,0,0,0-1.3-.55h-3.74l-.21-.21-1-1.67h4.92a3.73,3.73,0,0,1,3.73,3.73A3.54,3.54,0,0,1,250,268,3.61,3.61,0,0,1,248.35,269.33Z"/><path class="cls-36" d="M256.38,271.48l-1,1.88h-2.07l5.6-11.21,3.74,7.48h-2.1L259,266.34l-1.65,3.29Zm8.18,1.88h-2.09l-.92-1.86h2.07Z"/><path class="cls-36" d="M260.39,262.15l5.62,5.6,5.6-5.6v11.21h-1.85v-6.7L266,270.4l-5.62-5.64Z"/><path class="cls-36" d="M277.47,271.48l-1,1.88h-2.07l5.6-11.21,3.74,7.48h-2.1L280,266.34l-1.65,3.29Zm8.18,1.88h-2.09l-.92-1.86h2.07Z"/><path class="cls-36" d="M285.52,267.75l5.6,5.6h-2.63l-4.85-4.82-.78-.77.78-.78,4.85-4.83h2.63Zm-1.88-.77,4.85-4.83Zm4.85,6.37-4.85-4.82Z"/><path class="cls-36" d="M297.45,269.33l2.3,4H297.6l-3.25-5.62H296a1.89,1.89,0,0,0,1.86-1.88,1.74,1.74,0,0,0-.56-1.3A1.78,1.78,0,0,0,296,264h-3.74l-.21-.21-1-1.67H296a3.73,3.73,0,0,1,3.73,3.73,3.54,3.54,0,0,1-.66,2.12A3.61,3.61,0,0,1,297.45,269.33Z"/><path class="cls-36" d="M303.62,271.48l-1.86,1.88V262.15l1.86,1.85Z"/><path class="cls-36" d="M307,268.69a3.15,3.15,0,0,1-2.31-1,3.21,3.21,0,0,1-1-2.33,3.16,3.16,0,0,1,1-2.3,3.11,3.11,0,0,1,2.31-1V264a1.42,1.42,0,0,0-.55.1,1.29,1.29,0,0,0-.46.31,1.36,1.36,0,0,0-.39,1,1.37,1.37,0,0,0,.39,1,1.35,1.35,0,0,0,1,.42h2.79a3.26,3.26,0,1,1,0,6.53v-1.88a1.42,1.42,0,0,0,.55-.1,1.32,1.32,0,0,0,.46-.29,1.25,1.25,0,0,0,.29-.45,1.41,1.41,0,0,0,.11-.55,1.39,1.39,0,0,0-.42-1,1.34,1.34,0,0,0-1-.42Z"/><path class="cls-36" d="M322.47,262.15v11.21H320.6v-4.66H315v4.66h-1.86v-4.66l1.86-1.88h5.6v-4.66Z"/><path class="cls-36" d="M333.92,262.15v11.18h0L324.6,265v-2.83l7.45,6.71v-6.71Z"/><path class="cls-36" d="M339.78,271.48l-1,1.88h-2.07l5.6-11.21,3.74,7.48H344l-1.64-3.29-1.65,3.29Zm8.18,1.88h-2.09l-.92-1.86H347Z"/><path class="cls-36" d="M223.8,278.95l5.62,5.6,5.6-5.6v11.21h-1.85v-6.7l-3.75,3.74-5.62-5.64Z"/><path class="cls-36" d="M239,288.28l-1.86,1.88V278.95L239,280.8Z"/><path class="cls-36" d="M242.38,285.49a3.15,3.15,0,0,1-2.31-1,3.21,3.21,0,0,1-1-2.33,3.16,3.16,0,0,1,1-2.3,3.11,3.11,0,0,1,2.31-1v1.88a1.42,1.42,0,0,0-.55.1,1.29,1.29,0,0,0-.46.31,1.44,1.44,0,0,0,0,2,1.35,1.35,0,0,0,1,.42h2.79a3.26,3.26,0,1,1,0,6.53v-1.88a1.42,1.42,0,0,0,.55-.1,1.31,1.31,0,0,0,.46-.29,1.24,1.24,0,0,0,.29-.45,1.41,1.41,0,0,0,.11-.55,1.39,1.39,0,0,0-.42-1,1.34,1.34,0,0,0-1-.42Z"/><path class="cls-36" d="M250.43,285.49a3.15,3.15,0,0,1-2.31-1,3.21,3.21,0,0,1-1-2.33,3.16,3.16,0,0,1,1-2.3,3.11,3.11,0,0,1,2.31-1v1.88a1.42,1.42,0,0,0-.55.1,1.29,1.29,0,0,0-.46.31,1.44,1.44,0,0,0,0,2,1.35,1.35,0,0,0,1,.42h2.79a3.26,3.26,0,1,1,0,6.53v-1.88a1.42,1.42,0,0,0,.55-.1,1.31,1.31,0,0,0,.46-.29,1.24,1.24,0,0,0,.29-.45,1.41,1.41,0,0,0,.11-.55,1.39,1.39,0,0,0-.42-1,1.34,1.34,0,0,0-1-.42Z"/><path class="cls-36" d="M260.27,288.28l-1.86,1.88V278.95l1.86,1.85Z"/><path class="cls-36" d="M269.92,280.6a5.55,5.55,0,1,1-4-1.65A5.36,5.36,0,0,1,269.92,280.6Zm-6.6,1.32a3.74,3.74,0,1,0,2.65-1.09A3.58,3.58,0,0,0,263.32,281.92Z"/><path class="cls-36" d="M280.88,278.95v11.18h0l-9.31-8.38v-2.83l7.45,6.71v-6.71Z"/><path class="cls-36" d="M288.6,278.95l4.57,9.12-1.05,2.09-5.6-11.21Z"/><path class="cls-36" d="M296.67,288.28l-1.86,1.88V278.95l1.86,1.85Z"/><path class="cls-36" d="M309.59,284.55a5.3,5.3,0,0,1-.43,2.16A6.11,6.11,0,0,1,308,288.5a5.67,5.67,0,0,1-1.79,1.21,5.38,5.38,0,0,1-2.17.45h-3.73l1.86-1.88H304a3.84,3.84,0,0,0,1.46-.28,3.67,3.67,0,0,0,1.19-.81,4,4,0,0,0,.8-1.19,3.69,3.69,0,0,0,0-2.89,3.83,3.83,0,0,0-.81-1.19,3.91,3.91,0,0,0-1.19-.81,3.83,3.83,0,0,0-1.44-.28h-1.86l-1.86-1.88H304a5.43,5.43,0,0,1,2.17.45,5.78,5.78,0,0,1,1.78,1.21,5.89,5.89,0,0,1,1.22,1.79A5.3,5.3,0,0,1,309.59,284.55Z"/><path class="cls-36" d="M313.74,286.08h0l-3.18,4.09h-2.4l4.4-5.6-4.4-5.6h2.4l3.18,4.09,3.19-4.09h2.37l-4.37,5.6Zm0,0-3.18,4.08,3.18-4.09Z"/><path class="cls-36" d="M318.62,288.28l-1,1.88H315.6l5.6-11.21,3.74,7.48h-2.1l-1.64-3.29-1.65,3.29Zm8.18,1.88h-2.09l-.92-1.86h2.07Z"/><path class="cls-36" d="M329.34,278.95v6.79l-1.86,1.88v-8.67Zm5.6,9.33v1.88h-7.47l1.86-1.88Z"/><path class="cls-36" d="M339.83,288.28l-1,1.88h-2.07l5.6-11.21,3.74,7.48H344l-1.64-3.29-1.65,3.29Zm8.18,1.88h-2.09l-.92-1.86h2.07Z"/><path class="cls-36" d="M353.1,286.08h0l-3.18,4.09h-2.4l4.4-5.6-4.4-5.6h2.4L353.1,283l3.19-4.09h2.37l-4.37,5.6Zm0,0-3.18,4.08,3.18-4.09Z"/><path class="cls-36" d="M358,288.28l-1,1.88H355l5.6-11.21,3.74,7.48h-2.1l-1.64-3.29-1.65,3.29Zm8.18,1.88h-2.09l-.92-1.86h2.07Z"/><path class="cls-36" d="M252.5,295.75v11.18h0l-9.31-8.38v-2.83l7.45,6.71v-6.71Z"/><path class="cls-36" d="M258.36,305.08l-1,1.88h-2.07l5.6-11.21,3.74,7.48h-2.1l-1.64-3.29-1.65,3.29Zm8.18,1.88h-2.09l-.92-1.86h2.07Z"/><path class="cls-36" d="M267.54,302.93l2.3,4H267.7l-3.25-5.62h1.67a1.89,1.89,0,0,0,1.86-1.88,1.74,1.74,0,0,0-.56-1.3,1.78,1.78,0,0,0-1.3-.55h-3.74l-.21-.21-1-1.67h4.92a3.73,3.73,0,0,1,3.73,3.73,3.54,3.54,0,0,1-.66,2.12A3.61,3.61,0,0,1,267.54,302.93Z"/><path class="cls-36" d="M277.79,295.75v1.88h-5.6l-1.86-1.88Zm-5.6,4.68h5.6v1.86h-7.47v-1.86Zm0,4.65h5.6V307h-7.47v-.15Z"/><path class="cls-36" d="M288.55,295.75v11.18h0l-9.31-8.38v-2.83l7.45,6.71v-6.71Z"/><path class="cls-36" d="M298.37,301.35a5.3,5.3,0,0,1-.43,2.16,6.11,6.11,0,0,1-1.21,1.79,5.67,5.67,0,0,1-1.79,1.21,5.38,5.38,0,0,1-2.17.45H289l1.86-1.88h1.86a3.84,3.84,0,0,0,1.46-.28,3.67,3.67,0,0,0,1.19-.81,4,4,0,0,0,.8-1.19,3.69,3.69,0,0,0,0-2.89,3.83,3.83,0,0,0-.81-1.19,3.91,3.91,0,0,0-1.19-.81,3.83,3.83,0,0,0-1.44-.28h-1.86L289,295.75h3.73a5.43,5.43,0,0,1,2.17.45,5.78,5.78,0,0,1,1.78,1.21,5.89,5.89,0,0,1,1.22,1.79A5.3,5.3,0,0,1,298.37,301.35Z"/><path class="cls-36" d="M303.06,302.93l2.3,4h-2.14L300,301.34h1.67a1.89,1.89,0,0,0,1.86-1.88,1.74,1.74,0,0,0-.56-1.3,1.78,1.78,0,0,0-1.3-.55h-3.74l-.21-.21-1-1.67h4.92a3.73,3.73,0,0,1,3.73,3.73,3.54,3.54,0,0,1-.66,2.12A3.61,3.61,0,0,1,303.06,302.93Z"/><path class="cls-36" d="M311.1,305.08l-1,1.88h-2.07l5.6-11.21,3.74,7.48h-2.1l-1.64-3.29L312,303.23Zm8.18,1.88h-2.09l-.92-1.86h2.07Z"/><path class="cls-36" d="M329.29,299.49a3.73,3.73,0,0,1-3.73,3.74h-3.74V307H320v-5.6h5.6a1.78,1.78,0,0,0,1.3-.55,1.8,1.8,0,0,0,.56-1.32,1.89,1.89,0,0,0-1.86-1.86h-3.74L320,295.75h5.6a3.6,3.6,0,0,1,2.63,1.09A3.65,3.65,0,0,1,329.29,299.49Z"/><path class="cls-36" d="M340.21,302.29a4.46,4.46,0,0,1-1.37,3.31,4.66,4.66,0,0,1-8-3.31v-6.54h1.86v6.54a2.78,2.78,0,0,0,4.76,2,2.7,2.7,0,0,0,.84-2Z"/><path class="cls-36" d="M343.16,302.93l2.3,4h-2.14l-3.25-5.62h1.67a1.89,1.89,0,0,0,1.86-1.88,1.74,1.74,0,0,0-.56-1.3,1.78,1.78,0,0,0-1.3-.55H338l-.21-.21-1-1.67h4.92a3.73,3.73,0,0,1,3.73,3.73,3.54,3.54,0,0,1-.66,2.12A3.61,3.61,0,0,1,343.16,302.93Z"/><text class="cls-37" transform="translate(76.6 326.35)">P<tspan class="cls-38" x="6.95" y="0">assed Secondary </tspan><tspan class="cls-38"><tspan x="13.88" y="16.8">examinations</tspan><tspan x="11" y="33.6">under WBBS</tspan><tspan class="cls-39" x="86.94" y="33.6">E</tspan><tspan x="94.37" y="33.6">.</tspan></tspan></text><text class="cls-40" transform="translate(559.66 322.24)">P<tspan class="cls-38" x="7.21" y="0">resently enrolled in a </tspan><tspan class="cls-38"><tspan x="0.51" y="16.8">Dual Degree </tspan><tspan class="cls-41" x="83.04" y="16.8">P</tspan><tspan x="89.96" y="16.8">rogram</tspan><tspan x="4.3" y="33.6">Completed a semes</tspan><tspan x="126.19" y="33.6">-</tspan><tspan x="34.23" y="50.4">ter till no</tspan><tspan class="cls-42" x="88.5" y="50.4">w</tspan><tspan class="cls-43" x="97.7" y="50.4">.</tspan></tspan></text><text class="cls-44" transform="translate(398.78 326.35)">Joined <tspan class="cls-45" x="45.81" y="0">B</tspan><tspan x="53.5" y="0">.</tspan><tspan class="cls-46" x="57.72" y="0">E</tspan><tspan x="65.43" y="0">. in E</tspan><tspan class="cls-47" x="97.46" y="0">T</tspan><tspan x="104.08" y="0">CE </tspan><tspan x="1.4" y="16.8">department. Com</tspan><tspan x="114.52" y="16.8">-</tspan><tspan x="-0.36" y="33.6">pleted my first year </tspan><tspan x="4.96" y="50.4">and dropped out.</tspan></text><text class="cls-37" transform="translate(236.38 326.35)">P<tspan class="cls-38" x="6.95" y="0">assed Higher Sec</tspan><tspan class="cls-38" x="112.22" y="0">-</tspan><tspan class="cls-38"><tspan x="-5.36" y="16.8">ondary examinations</tspan><tspan x="9.06" y="33.6">under WBCHS</tspan><tspan class="cls-48" x="97.17" y="33.6">E</tspan><tspan class="cls-43" x="104.6" y="33.6">.</tspan></tspan></text><text class="cls-49" transform="translate(129.28 473.31)">92.14%</text><text class="cls-49" transform="translate(633.29 445.78)">SG<tspan class="cls-50" x="27.05" y="0">P</tspan><tspan class="cls-46" x="38.15" y="0">A</tspan><tspan x="52.22" y="0">:</tspan><tspan x="8.59" y="22.8">8.64</tspan></text><text class="cls-49" transform="translate(469.33 445.78)">G<tspan class="cls-50" x="16.01" y="0">P</tspan><tspan class="cls-46" x="27.11" y="0">A</tspan><tspan x="41.18" y="0">:</tspan><tspan x="3.07" y="22.8">7.79</tspan></text><text class="cls-49" transform="translate(289.71 473.31)">90.00%</text></g></svg>